<?xml version="1.0" encoding="UTF-8"?>
<svg width="553px" height="456px" viewBox="0 0 553 456" version="1.1" xmlns="http://www.w3.org/2000/svg" xmlns:xlink="http://www.w3.org/1999/xlink">
    <!-- Generator: Sketch 49.3 (51167) - http://www.bohemiancoding.com/sketch -->
    <title>undraw_firmware_mf69</title>
    <desc>Created with Sketch.</desc>
    <defs>
        <linearGradient x1="50.0045943%" y1="100%" x2="50.0045943%" y2="0%" id="linearGradient-1">
            <stop stop-color="#808080" stop-opacity="0.25" offset="0%"></stop>
            <stop stop-color="#808080" stop-opacity="0.12" offset="54%"></stop>
            <stop stop-color="#808080" stop-opacity="0.1" offset="100%"></stop>
        </linearGradient>
        <linearGradient x1="84391%" y1="39731%" x2="84391%" y2="11579%" id="linearGradient-2">
            <stop stop-color="#808080" stop-opacity="0.25" offset="0%"></stop>
            <stop stop-color="#808080" stop-opacity="0.12" offset="54%"></stop>
            <stop stop-color="#808080" stop-opacity="0.1" offset="100%"></stop>
        </linearGradient>
        <linearGradient x1="77904%" y1="39682%" x2="77904%" y2="30893%" id="linearGradient-3">
            <stop stop-color="#808080" stop-opacity="0.25" offset="0%"></stop>
            <stop stop-color="#808080" stop-opacity="0.12" offset="54%"></stop>
            <stop stop-color="#808080" stop-opacity="0.1" offset="100%"></stop>
        </linearGradient>
        <linearGradient x1="83031%" y1="39682%" x2="83031%" y2="30893%" id="linearGradient-4">
            <stop stop-color="#808080" stop-opacity="0.25" offset="0%"></stop>
            <stop stop-color="#808080" stop-opacity="0.12" offset="54%"></stop>
            <stop stop-color="#808080" stop-opacity="0.1" offset="100%"></stop>
        </linearGradient>
        <linearGradient x1="96914%" y1="55631%" x2="96914%" y2="13712%" id="linearGradient-5">
            <stop stop-color="#808080" stop-opacity="0.25" offset="0%"></stop>
            <stop stop-color="#808080" stop-opacity="0.12" offset="54%"></stop>
            <stop stop-color="#808080" stop-opacity="0.1" offset="100%"></stop>
        </linearGradient>
        <linearGradient x1="35566%" y1="69167%" x2="35566%" y2="29898%" id="linearGradient-6">
            <stop stop-color="#808080" stop-opacity="0.25" offset="0%"></stop>
            <stop stop-color="#808080" stop-opacity="0.12" offset="54%"></stop>
            <stop stop-color="#808080" stop-opacity="0.1" offset="100%"></stop>
        </linearGradient>
        <linearGradient x1="0%" y1="100%" x2="100%" y2="0%" id="linearGradient-7">
            <stop stop-color="#FD384B" offset="0%"></stop>
            <stop stop-color="#E53243" offset="100%"></stop>
        </linearGradient>
    </defs>
    <g id="Welcome" stroke="none" stroke-width="1" fill="none" fill-rule="evenodd">
        <g id="Desktop" transform="translate(0.000000, -93.000000)">
            <g id="undraw_firmware_mf69" transform="translate(-101.000000, 92.000000)">
                <path d="M616.859618,259.077399 C594.960928,287.435745 603.485485,328.871623 617.382954,362.051124 C622.034827,373.162289 627.314702,384.913115 625.349286,396.82978 C622.947757,411.399857 610.178366,422.049044 596.775159,427.699391 C572.352828,437.993209 543.104179,435.541172 520.653079,421.314617 C501.25477,409.018893 487.357301,389.029458 467.627546,377.2964 C434.581807,357.650487 392.575397,365.065827 356.721089,378.593492 C331.350939,388.16473 303.619964,400.608524 278.41263,390.604922 C260.677365,383.56864 248.413866,366.439916 241.732614,348.286547 C238.505378,339.520809 236.167812,330.032491 230.009896,323.085052 C226.346546,318.939095 221.572562,316.025079 216.676466,313.549351 C171.977785,290.977576 115.498237,303.066002 72.1020811,278.012577 C42.7778394,261.102995 24.0075336,229.202818 15.6981262,195.946321 C7.38871886,162.689823 8.35398242,127.834171 10.4647696,93.5530299 C11.9649985,69.2103399 14.6572697,43.2092671 29.9270415,24.434005 C46.080669,4.55710288 73.8058295,-2.81085488 98.8619781,0.944197549 C123.918127,4.69924998 146.636709,18.1854556 166.616502,34.0407795 C191.591243,53.8584537 214.751754,78.538743 245.413409,86.5700539 C266.294502,92.0367943 288.26297,89.0457825 309.795325,88.0092932 C345.800819,86.2798369 381.817942,90.1296541 417.619916,94.3466846 C451.898402,98.3801084 486.421112,102.822205 519.077257,114.182127 C542.185434,122.219361 560.711517,136.807206 582.534614,147.000338 C596.757714,153.645714 612.265894,155.475858 625.733065,163.939533 C642.322806,174.363653 657.528614,192.493331 653.277966,213.691016 C649.236652,233.905518 628.483485,244.021653 616.859618,259.077399 Z" id="Shape" fill="#FD384B" fill-rule="nonzero" opacity="0.1"></path>
                <path d="M362.411491,253.464378 C360.419041,255.48462 359.964623,258.260977 359.259692,260.836491 C357.238112,268.184976 352.484196,274.966375 345.860174,279.946096 C341.007218,283.596709 334.493888,287.62538 335.647411,293.077672 C335.921228,294.377244 336.649462,295.594115 336.812587,296.9055 C337.639861,302.582264 329.081648,305.571278 325.74342,310.539184 C323.273248,314.237055 323.937398,318.809183 324.665633,323.038697 C325.562818,328.195632 326.652257,333.701088 330.823585,337.499381 C331.947979,338.521316 333.293757,339.413295 334.08025,340.647887 C335.828013,343.418337 334.313285,347.045322 335.909576,349.886657 C338.041847,353.673135 344.764909,353.838535 348.668247,351.28665 C352.571585,348.734765 354.371781,344.534787 356.102066,340.60063 C360.762768,329.967774 366.518734,319.293569 376.230472,311.543398 C385.551875,304.118121 399.085388,298.35275 400.699156,287.54268 C401.386609,282.905574 399.650498,277.825432 402.301272,273.743596 C403.553836,271.811961 405.645326,270.382433 407.06684,268.539404 C411.290601,263.045762 408.144627,255.100656 401.963371,251.196035 C392.647794,245.312522 370.532764,245.218007 362.411491,253.464378 Z" id="Shape" fill="#DEE3F3" fill-rule="nonzero" opacity="0.5"></path>
                <ellipse id="Oval" fill="#DEE3F3" fill-rule="nonzero" opacity="0.5" cx="475" cy="231.5" rx="90" ry="15.5"></ellipse>
                <polygon id="Shape" fill="url(#linearGradient-1)" fill-rule="nonzero" points="489.093816 171.923529 495.756777 171.923529 495.756777 167.729412 495.756777 167 441.243223 167 441.243223 167.729412 441.243223 171.923529 447.906184 171.923529 447.906184 176.847059 437 176.847059 437 183 500 183 500 176.847059 489.093816 176.847059"></polygon>
                <path d="M534.207571,176.687166 C534.680976,170.88929 534.563713,165.057095 533.857658,159.2838 C533.282425,154.392215 531.96014,149.622155 529.938631,145.146163 C526.404509,137.605298 521.371593,133.508293 516.956857,131.287597 C513.998715,129.761425 510.766354,128.864429 507.456717,128.651263 C507.144943,126.521845 505.349017,124.945706 503.234433,124.945706 C501.119848,124.945706 499.323922,126.521845 499.012148,128.651263 L499.012148,117.45872 L475.818744,117.45872 L475.818744,111.247897 L507.042653,111.247897 C508.994495,111.247897 510.576775,109.636911 510.576775,107.649658 L510.576775,75.0814346 C510.576775,73.0941818 508.994495,71.4831951 507.042653,71.4831951 L495.203928,71.4831951 L495.203928,39.3840491 C496.908783,38.599738 498.00412,36.8711645 498.003232,34.9664086 C498.003232,34.9189071 498.003232,34.8714056 498.003232,34.8239041 C498.003232,34.7764026 498.003232,34.7289011 498.003232,34.6813996 C497.913453,32.0698596 495.808074,30 493.241499,30 C490.674923,30 488.569544,32.0698596 488.479765,34.6813996 C488.479765,34.7289011 488.479765,34.7764026 488.479765,34.8239041 C488.479765,34.8714056 488.479765,34.9189071 488.479765,34.9664086 C488.477609,36.7579126 489.446566,38.4044223 490.999139,39.2474823 L490.999139,71.4831951 L447.015067,71.4831951 L447.015067,39.2474823 C448.56764,38.4044223 449.536597,36.7579126 449.534441,34.9664086 C449.534441,34.9189071 449.534441,34.8714056 449.534441,34.8239041 C449.534441,34.7764026 449.534441,34.7289011 449.534441,34.6813996 C449.444662,32.0698596 447.339283,30 444.772707,30 C442.206132,30 440.100753,32.0698596 440.010974,34.6813996 C440.010974,34.7289011 440.010974,34.7764026 440.010974,34.8239041 C440.010974,34.8714056 440.010974,34.9189071 440.010974,34.9664086 C440.010086,36.8711645 441.105423,38.599738 442.810278,39.3840491 L442.810278,71.4831951 L429.927645,71.4831951 C427.975804,71.4831951 426.393524,73.0941818 426.393524,75.0814346 L426.393524,107.64372 C426.393524,109.630973 427.975804,111.24196 429.927645,111.24196 L461.174882,111.24196 L461.174882,117.452782 L437.98731,117.452782 L437.98731,126.608699 C437.792122,126.027657 437.47806,125.495398 437.065872,125.047086 L436.96673,124.940208 C435.745742,123.695153 433.907953,123.322368 432.311531,123.995928 C430.71511,124.669487 429.674994,126.256512 429.676874,128.015931 L429.676874,128.6097 C426.319015,128.79298 423.036552,129.693221 420.042601,131.251971 C415.622033,133.478605 410.594949,137.57561 407.060827,145.122412 C405.040482,149.594679 403.718222,154.360641 403.1418,159.248174 C402.435745,165.021468 402.318482,170.853663 402.791887,176.65154 C393.000153,184.928679 405.264606,196.952498 405.264606,196.952498 C415.312943,196.952498 415.0855,179.970708 414.974694,177.073116 L415.027181,177.073116 C415.027181,177.073116 415.027181,176.930612 414.957198,176.663416 C414.231682,171.919329 414.03604,167.106863 414.37401,162.317959 C414.604629,158.545467 415.407263,154.832032 416.753419,151.309484 C417.808058,148.564727 419.458852,146.098418 421.582219,144.095192 C423.871344,142.027336 426.67991,140.647942 429.69437,140.111003 L429.69437,142.907654 C429.690773,145.035726 431.201099,146.853492 433.262932,147.202629 C435.324764,147.551765 437.331672,146.329584 438.004805,144.314887 L438.004805,167.139363 L499.012148,167.139363 L499.012148,144.813653 C499.136282,145.679203 499.514379,146.486372 500.096879,147.129351 L500.213516,147.254043 C501.434504,148.499098 503.272293,148.871883 504.868715,148.198323 C506.465137,147.524764 507.505252,145.937738 507.503372,144.17832 L507.503372,140.176318 C510.45024,140.731332 513.192512,142.094496 515.434735,144.118943 C517.558101,146.122169 519.208896,148.588478 520.263535,151.333235 C521.614034,154.862974 522.418677,158.584614 522.648776,162.365461 C522.986745,167.154364 522.791103,171.966831 522.065587,176.710917 C522.024764,176.978113 521.995605,177.120618 521.995605,177.120618 L522.048092,177.120618 C521.937286,180.01821 521.715674,197 531.758179,197 C531.734852,196.988125 543.999305,184.964305 534.207571,176.687166 Z" id="Shape" fill="url(#linearGradient-2)" fill-rule="nonzero"></path>
                <polygon id="Shape" fill="url(#linearGradient-3)" fill-rule="nonzero" points="440.221437 183.567983 440.221437 189.188645 447.52098 189.188645 447.52098 197.856298 447.52098 197.856298 447.52098 205.281488 447.52098 216.428149 447.52098 222.616794 447.52098 226.332347 439 226.332347 439 235 462.131699 235 462.131699 226.332347 458.47902 226.332347 458.47902 222.616794 458.47902 222.616794 458.47902 216.428149 458.47902 216.428149 458.47902 205.281488 458.47902 205.281488 458.47902 197.856298 458.47902 197.856298 458.47902 189.188645 467 189.188645 467 183.567983 467 183 440.221437 183"></polygon>
                <polygon id="Shape" fill="url(#linearGradient-4)" fill-rule="nonzero" points="469 183.567983 469 189.188645 480.048653 189.188645 480.048653 197.856298 480.048653 197.856298 480.048653 205.281488 480.048653 216.428149 480.048653 222.616794 480.048653 226.332347 471.457211 226.332347 471.457211 235 494.774327 235 494.774327 226.332347 491.091442 226.332347 491.091442 222.616794 491.091442 216.428149 491.091442 205.281488 491.091442 197.856298 491.091442 197.856298 491.091442 189.188645 496 189.188645 496 183.567983 496 183 469 183"></polygon>
                <rect id="Rectangle-path" fill="#FD384B" fill-rule="nonzero" x="428" y="73" width="82" height="39" rx="12.97"></rect>
                <rect id="Rectangle-path" fill="#000000" fill-rule="nonzero" opacity="0.1" x="434" y="105" width="69" height="1"></rect>
                <rect id="Rectangle-path" fill="#000000" fill-rule="nonzero" opacity="0.3" x="434" y="79" width="69" height="27"></rect>
                <circle id="Oval" fill="#000000" fill-rule="nonzero" opacity="0.1" cx="450.5" cy="92.5" r="9.5"></circle>
                <circle id="Oval" fill="#DEE3F3" fill-rule="nonzero" cx="450.5" cy="91.5" r="9.5"></circle>
                <circle id="Oval" fill="#000000" fill-rule="nonzero" opacity="0.1" cx="487.5" cy="92.5" r="9.5"></circle>
                <circle id="Oval" fill="#DEE3F3" fill-rule="nonzero" cx="487.5" cy="91.5" r="9.5"></circle>
                <rect id="Rectangle-path" fill="#FD384B" fill-rule="nonzero" x="462" y="111" width="14" height="8"></rect>
                <rect id="Rectangle-path" fill="#FD384B" fill-rule="nonzero" x="439" y="117" width="59" height="48"></rect>
                <polygon id="Shape" fill="#FD384B" fill-rule="nonzero" points="495 166 495 170.996931 488.521772 170.996931 488.521772 176 448.478228 176 448.478228 170.996931 442 170.996931 442 166"></polygon>
                <polygon id="Shape" fill="#000000" fill-rule="nonzero" opacity="0.3" points="495 166 495 170.996931 488.521772 170.996931 488.521772 176 448.478228 176 448.478228 170.996931 442 170.996931 442 166"></polygon>
                <rect id="Rectangle-path" fill="#FD384B" fill-rule="nonzero" x="438" y="175" width="62" height="6"></rect>
                <rect id="Rectangle-path" fill="#FD384B" fill-rule="nonzero" x="441" y="181" width="26" height="6"></rect>
                <rect id="Rectangle-path" fill="#FD384B" fill-rule="nonzero" x="469" y="181" width="26" height="6"></rect>
                <rect id="Rectangle-path" fill="#FD384B" fill-rule="nonzero" x="440" y="224" width="22" height="8"></rect>
                <polygon id="Shape" fill="#FD384B" fill-rule="nonzero" points="448 195.403339 448 202.598625 448 213.400393 448 219.399411 448 223 459 223 459 219.399411 459 213.400393 459 202.598625 459 195.403339 459 187 448 187"></polygon>
                <polygon id="Shape" fill="#FD384B" fill-rule="nonzero" points="480 187 480 195.403339 480 202.598625 480 213.400393 480 219.399411 480 223 491 223 491 219.399411 491 213.400393 491 202.598625 491 195.403339 491 187"></polygon>
                <rect id="Rectangle-path" fill="#FD384B" fill-rule="nonzero" x="472" y="224" width="22" height="8"></rect>
                <path d="M439,127.230195 L439,141.803963 C439,141.911342 439,142.024687 439,142.132067 C438.806696,144.38571 436.984282,146.084173 434.853254,145.996774 C432.722226,145.909374 431.028796,144.066715 431,141.803963 L431,127.230195 C431.006616,125.514601 431.985225,123.971679 433.480546,123.319249 C434.975866,122.666819 436.694255,123.033001 437.836261,124.247435 L437.931834,124.348849 C438.5544,125.053514 438.931287,125.962808 439,126.925954 C438.994378,127.009471 439,127.122816 439,127.230195 Z" id="Shape" fill="#FD384B" fill-rule="nonzero"></path>
                <path d="M506,129.111298 L506,143.752089 C505.993393,145.474869 505.016158,147.024252 503.522936,147.679414 C502.029714,148.334577 500.313737,147.966861 499.173334,146.747341 L499.061053,146.62154 C498.378551,145.834041 497.999631,144.800756 498,143.728127 L498,129.111298 C498.080593,126.816206 499.847632,125 502,125 C504.152368,125 505.919407,126.816206 506,129.111298 Z" id="Shape" fill="#FD384B" fill-rule="nonzero"></path>
                <path d="M431,128 L431,139.14903 C428.113973,139.669741 425.424998,141.008356 423.233399,143.015369 C421.200391,144.958154 419.619811,147.350772 418.610149,150.013857 C417.317916,153.423137 416.543973,157.018112 416.315732,160.671454 C415.98573,165.457335 416.203288,170.266685 416.963904,175 L405.30253,175 C404.815034,169.240012 404.916933,163.443031 405.606541,157.705089 C406.158315,152.962461 407.424013,148.337825 409.357912,143.998236 C412.742177,136.674099 417.554717,132.695263 421.78218,130.54006 C424.648422,129.036032 427.788913,128.170639 431,128 Z" id="Shape" fill="#FD384B" fill-rule="nonzero"></path>
                <path d="M407.262137,195 C407.262137,195 395.000343,183.157499 404.792998,175 L416.95291,175 C416.95291,175 418.24741,195 407.262137,195 Z" id="Shape" fill="#FD384B" fill-rule="nonzero"></path>
                <path d="M407.262137,195 C407.262137,195 395.000343,183.157499 404.792998,175 L416.95291,175 C416.95291,175 418.24741,195 407.262137,195 Z" id="Shape" fill="#000000" fill-rule="nonzero" opacity="0.3"></path>
                <rect id="Rectangle-path" fill="#000000" fill-rule="nonzero" opacity="0.3" x="449" y="125" width="40" height="31"></rect>
                <rect id="Rectangle-path" fill="#000000" fill-rule="nonzero" opacity="0.3" x="448" y="187" width="11" height="8"></rect>
                <rect id="Rectangle-path" fill="#000000" fill-rule="nonzero" opacity="0.3" x="448" y="203" width="11" height="11"></rect>
                <rect id="Rectangle-path" fill="#000000" fill-rule="nonzero" opacity="0.3" x="448" y="220" width="11" height="4"></rect>
                <rect id="Rectangle-path" fill="#000000" fill-rule="nonzero" opacity="0.3" x="480" y="187" width="11" height="8"></rect>
                <rect id="Rectangle-path" fill="#000000" fill-rule="nonzero" opacity="0.3" x="480" y="203" width="11" height="11"></rect>
                <rect id="Rectangle-path" fill="#000000" fill-rule="nonzero" opacity="0.3" x="480" y="220" width="11" height="4"></rect>
                <path d="M431,128 L431,139.137618 C428.18217,139.657797 425.556737,140.995041 423.416926,143 L422,130.578864 C424.795499,129.062003 427.861928,128.183347 431,128 Z" id="Shape" fill="#000000" fill-rule="nonzero" opacity="0.3"></path>
                <path d="M418,150.129663 C416.709833,153.606997 415.937127,157.273732 415.709251,161 L405,157.980462 C405.550892,153.143163 406.814566,148.426213 408.745374,144 L418,150.129663 Z" id="Shape" fill="#000000" fill-rule="nonzero" opacity="0.3"></path>
                <path d="M506,128 L506,139.14903 C508.883722,139.669741 511.570547,141.008356 513.760396,143.015369 C515.791779,144.958154 517.371097,147.350772 518.379952,150.013857 C519.671153,153.423137 520.444478,157.018112 520.672536,160.671454 C521.002275,165.457335 520.78489,170.266685 520.024881,175 L531.694133,175 C532.183429,169.248271 532.085454,163.459317 531.401828,157.728773 C530.850495,152.986144 529.585809,148.361508 527.653454,144.02192 C524.271893,136.697783 519.463198,132.718947 515.239113,130.563744 C512.368193,129.047491 509.219956,128.173893 506,128 Z" id="Shape" fill="#FD384B" fill-rule="nonzero"></path>
                <path d="M530.737863,195 C530.737863,195 542.999657,183.157499 533.207002,175 L521.04709,175 C521.04709,175 519.75259,195 530.737863,195 Z" id="Shape" fill="#FD384B" fill-rule="nonzero"></path>
                <path d="M530.737863,195 C530.737863,195 542.999657,183.157499 533.207002,175 L521.04709,175 C521.04709,175 519.75259,195 530.737863,195 Z" id="Shape" fill="#000000" fill-rule="nonzero" opacity="0.3"></path>
                <path d="M506,128 L506,139.137618 C508.81783,139.657797 511.443263,140.995041 513.583074,143 L515,130.578864 C512.204501,129.062003 509.138072,128.183347 506,128 Z" id="Shape" fill="#000000" fill-rule="nonzero" opacity="0.3"></path>
                <path d="M519,150.129663 C520.290167,153.606997 521.062873,157.273732 521.290749,161 L532,157.980462 C531.449108,153.143163 530.185434,148.426213 528.254626,144 L519,150.129663 Z" id="Shape" fill="#000000" fill-rule="nonzero" opacity="0.3"></path>
                <rect id="Rectangle-path" fill="#000000" fill-rule="nonzero" opacity="0.1" x="462" y="111" width="14" height="1"></rect>
                <path d="M499,126 L499,146 C498.356769,145.228985 497.999653,144.217331 498,143.167155 L498,128.826979 C497.999941,127.77861 498.357109,126.768903 499,126 Z" id="Shape" fill="#000000" fill-rule="nonzero" opacity="0.1"></path>
                <path d="M439,127.528534 L439,142.471466 C438.935672,143.416459 438.582837,144.308616 438,145 L438,125 C438.582837,125.691384 438.935672,126.583541 439,127.528534 Z" id="Shape" fill="#000000" fill-rule="nonzero" opacity="0.1"></path>
                <rect id="Rectangle-path" fill="#000000" fill-rule="nonzero" opacity="0.1" x="442" y="166" width="53" height="1"></rect>
                <rect id="Rectangle-path" fill="#000000" fill-rule="nonzero" opacity="0.1" x="441" y="181" width="26" height="1"></rect>
                <rect id="Rectangle-path" fill="#000000" fill-rule="nonzero" opacity="0.1" x="469" y="181" width="26" height="1"></rect>
                <rect id="Rectangle-path" fill="#FD384B" fill-rule="nonzero" x="444" y="37" width="4" height="36"></rect>
                <rect id="Rectangle-path" fill="#FD384B" fill-rule="nonzero" x="491" y="37" width="4" height="36"></rect>
                <circle id="Oval" fill="#000000" fill-rule="nonzero" opacity="0.1" cx="445.5" cy="37.5" r="4.5"></circle>
                <circle id="Oval" fill="#FD384B" fill-rule="nonzero" cx="445.5" cy="36.5" r="4.5"></circle>
                <circle id="Oval" fill="#000000" fill-rule="nonzero" opacity="0.1" cx="492.5" cy="37.5" r="4.5"></circle>
                <circle id="Oval" fill="#FD384B" fill-rule="nonzero" cx="492.5" cy="36.5" r="4.5"></circle>
                <path d="M348.151038,146 C348.151038,146 361.716358,173.061358 350.664646,187.869523 C339.612934,202.677687 351.667757,243 351.667757,243" id="Shape" stroke="#AB3440" stroke-width="2"></path>
                <path d="M353,138.502981 C353,143.749294 349,148 349,148 C349,148 345,143.749294 345,138.502981 C345,133.256668 349.006192,129 349.006192,129 C349.006192,129 353,133.256668 353,138.502981 Z" id="Shape" fill="#AB3440" fill-rule="nonzero"></path>
                <path d="M354.848962,146 C354.848962,146 341.283642,173.061358 352.335354,187.869523 C363.387066,202.677687 351.332243,243 351.332243,243" id="Shape" stroke="#AB3440" stroke-width="2"></path>
                <path d="M351,138.502981 C351,143.749294 355,148 355,148 C355,148 359,143.749294 359,138.502981 C359,133.256668 355,129 355,129 C355,129 351,133.256668 351,138.502981 Z" id="Shape" fill="#AB3440" fill-rule="nonzero"></path>
                <path d="M361.151038,146 C361.151038,146 374.716358,173.061358 363.664646,187.869523 C352.612934,202.677687 364.667757,243 364.667757,243" id="Shape" stroke="#AB3440" stroke-width="2"></path>
                <path d="M365,138.502981 C365,143.749294 361,148 361,148 C361,148 357,143.749294 357,138.502981 C357,133.256668 360.987616,129 360.987616,129 C360.987616,129 365,133.256668 365,138.502981 Z" id="Shape" fill="#AB3440" fill-rule="nonzero"></path>
                <path d="M362.239475,159.73913 C358.649615,163.598261 353,164 353,164 C353,164 353.170665,158.144348 356.760525,154.26087 C360.350385,150.377391 366,150 366,150 C366,150 365.829335,155.873913 362.239475,159.73913 Z" id="Shape" fill="#AB3440" fill-rule="nonzero"></path>
                <path d="M363.239475,178.73913 C359.649615,182.598261 354,183 354,183 C354,183 354.170665,177.144348 357.760525,173.26087 C361.350385,169.377391 367,169 367,169 C367,169 366.811679,174.886087 363.239475,178.73913 Z" id="Shape" fill="#AB3440" fill-rule="nonzero"></path>
                <path d="M343.800158,188.536768 C347.114395,192.404653 346.999517,198 346.999517,198 C346.999517,198 341.51408,197.331118 338.199842,193.463232 C334.885605,189.595347 335.000483,184 335.000483,184 C335.000483,184 340.48592,184.668882 343.800158,188.536768 Z" id="Shape" fill="#AB3440" fill-rule="nonzero"></path>
                <path d="M346.51619,149.21204 C350.661521,152.180167 352,157.878238 352,157.878238 C352,157.878238 346.623494,158.757683 342.48381,155.789556 C338.344127,152.821429 337,147.123358 337,147.123358 C337,147.123358 342.376506,146.237806 346.51619,149.21204 Z" id="Shape" fill="#AB3440" fill-rule="nonzero"></path>
                <path d="M367.848962,146 C367.848962,146 354.283642,173.061358 365.335354,187.869523 C376.387066,202.677687 364.332243,243 364.332243,243" id="Shape" stroke="#AB3440" stroke-width="2"></path>
                <path d="M364,138.502981 C364,143.749294 368,148 368,148 C368,148 372,143.749294 372,138.502981 C372,133.256668 368,129 368,129 C368,129 364,133.256668 364,138.502981 Z" id="Shape" fill="#AB3440" fill-rule="nonzero"></path>
                <path d="M364.823871,159.905727 C361.232454,163.496476 361,169 361,169 C361,169 366.584712,168.685022 370.176129,165.094273 C373.767546,161.503524 374,156 374,156 C374,156 368.409477,156.320705 364.823871,159.905727 Z" id="Shape" fill="#AB3440" fill-rule="nonzero"></path>
                <path d="M371.827293,185.897707 C368.232662,189.491623 368,195 368,195 C368,195 373.589709,194.684744 377.18434,191.090829 C380.778971,187.496914 381,182 381,182 C381,182 375.421924,182.303792 371.827293,185.897707 Z" id="Shape" fill="#AB3440" fill-rule="nonzero"></path>
                <path d="M361,180 C361,180 369.320951,167.271074 381,167" id="Shape" stroke="#AB3440" stroke-width="2"></path>
                <path d="M356,172 C356,172 347.679049,159.271074 336,159" id="Shape" stroke="#AB3440" stroke-width="2"></path>
                <path d="M354,191 C354,191 362.320951,178.271074 374,178" id="Shape" stroke="#AB3440" stroke-width="2"></path>
                <circle id="Oval" fill="#AB3440" fill-rule="nonzero" cx="381" cy="167" r="2"></circle>
                <circle id="Oval" fill="#AB3440" fill-rule="nonzero" cx="336" cy="159" r="2"></circle>
                <path d="M360,195 C360,195 351.679049,182.271074 340,182" id="Shape" stroke="#AB3440" stroke-width="2"></path>
                <circle id="Oval" fill="#FC6681" fill-rule="nonzero" cx="341" cy="182" r="2"></circle>
                <circle id="Oval" fill="#FFD037" fill-rule="nonzero" cx="374" cy="178" r="2"></circle>
                <path d="M405,227.792286 C405,227.792286 385.393994,223.76015 380.162626,218.389943 C374.931258,213.019735 351.401726,203.611417 348.774416,210.331644 C346.147107,217.051871 313.480119,239.888694 335.701808,243.914857 C357.923498,247.941019 388.015491,249.291038 394.525638,246.602948 C401.035785,243.914857 405,227.792286 405,227.792286 Z" id="Shape" fill="#A8A8A8" fill-rule="nonzero"></path>
                <path d="M335.700613,241.536099 C357.92828,245.501754 388.028366,246.823638 394.540264,244.179869 C399.517214,242.164729 402.97666,232.500283 404.34881,228 L405,228.135126 C405,228.135126 401.075419,243.997742 394.53445,246.629762 C387.99348,249.261781 357.905023,247.951647 335.694799,243.985992 C329.299185,242.840359 327.444457,240.155464 328.136346,236.753814 C328.688695,238.980456 330.950416,240.684218 335.700613,241.536099 Z" id="Shape" fill="#000000" fill-rule="nonzero" opacity="0.2"></path>
                <path d="M616.667458,151 C616.667458,151 621.270609,157.254438 614.542489,166.698225 C607.814368,176.142012 602.265521,184.112426 604.504429,190 C604.504429,190 614.656428,172.461538 622.92273,172.218935 C631.189032,171.976331 625.75982,161.526627 616.667458,151 Z" id="Shape" fill="#AB3440" fill-rule="nonzero"></path>
                <path d="M616.549568,151 C616.955143,151.603454 617.275245,152.262995 617.500293,152.958877 C625.653479,162.800607 630.003765,171.985432 622.161726,172.216237 C614.861311,172.429287 606.097357,185.827769 604,189.230653 C604.068593,189.491635 604.151309,189.748483 604.247765,190 C604.247765,190 614.515593,172.458877 622.87621,172.216237 C631.236827,171.973596 625.74567,161.528225 616.549568,151 Z" id="Shape" fill="#000000" fill-rule="nonzero" opacity="0.1"></path>
                <path d="M625,159.314618 C625,161.348686 624.774194,163 624.5,163 C624.225806,163 624,161.359622 624,159.314618 C624,157.269613 624.27957,158.221032 624.537634,158.221032 C624.795699,158.221032 625,157.302421 625,159.314618 Z" id="Shape" fill="#FFD037" fill-rule="nonzero"></path>
                <path d="M628.816491,161.495617 C626.859639,162.564157 625.16011,163.212486 625.010504,162.936346 C624.860897,162.660206 626.32704,161.579659 628.283892,160.53513 C630.240744,159.490602 629.480743,160.246985 629.612397,160.53513 C629.744051,160.823276 630.773343,160.427076 628.816491,161.495617 Z" id="Shape" fill="#FFD037" fill-rule="nonzero"></path>
                <path d="M591.331072,151 C591.331072,151 586.727386,157.254438 593.456288,166.698225 C600.185189,176.142012 605.734681,184.112426 603.495512,190 C603.495512,190 593.342335,172.461538 585.075074,172.218935 C576.807812,171.976331 582.249049,161.526627 591.331072,151 Z" id="Shape" fill="#AB3440" fill-rule="nonzero"></path>
                <path d="M591.448958,151 C591.043336,151.603454 590.723196,152.262995 590.498122,152.958877 C582.343979,162.800607 577.993182,171.985432 585.836142,172.216237 C593.137414,172.429287 601.902397,185.827769 604,189.230653 C603.931399,189.491635 603.848673,189.748483 603.752206,190 C603.752206,190 593.483172,172.458877 585.121574,172.216237 C576.759976,171.973596 582.263302,161.528225 591.448958,151 Z" id="Shape" fill="#000000" fill-rule="nonzero" opacity="0.1"></path>
                <path d="M583,159.314618 C583,161.348686 583.225806,163 583.5,163 C583.774194,163 584,161.359622 584,159.314618 C584,157.269613 583.72043,158.221032 583.462366,158.221032 C583.204301,158.221032 583,157.302421 583,159.314618 Z" id="Shape" fill="#FFD037" fill-rule="nonzero"></path>
                <path d="M580.18171,161.495617 C582.139484,162.564157 583.839814,163.212486 583.989491,162.936346 C584.139168,162.660206 582.672334,161.579659 580.71456,160.53513 C578.756786,159.490602 579.517144,160.246985 579.385429,160.53513 C579.253713,160.823276 578.229923,160.427076 580.18171,161.495617 Z" id="Shape" fill="#FFD037" fill-rule="nonzero"></path>
                <path d="M585,189.150981 C585,189.150981 598.166749,188.741164 602.134251,185.901718 C606.101754,183.062271 622.38541,179.672499 623.370003,184.227322 C624.354596,188.782145 643.178386,206.872638 628.292968,206.995583 C613.407551,207.118528 593.75647,204.653772 589.794794,202.24756 C585.833117,199.841349 585,189.150981 585,189.150981 Z" id="Shape" fill="#A8A8A8" fill-rule="nonzero"></path>
                <path d="M628.565694,205.413232 C613.699979,205.537217 594.020826,203.051616 590.058189,200.625056 C587.039592,198.765283 585.839147,192.081909 585.437056,189 L585,189 C585,189 585.833319,199.763066 589.795956,202.207339 C593.758593,204.651611 613.437746,207.1195 628.30346,206.995515 C632.592432,206.960091 634.078421,205.413232 633.996837,203.122465 C633.396614,204.521722 631.759113,205.389616 628.565694,205.413232 Z" id="Shape" fill="#000000" fill-rule="nonzero" opacity="0.2"></path>
                <rect id="Rectangle-path" fill="#FD384B" fill-rule="nonzero" transform="translate(506.500000, 64.500000) rotate(-17.350000) translate(-506.500000, -64.500000) " x="485" y="62" width="43" height="5"></rect>
                <path d="M544,253.763106 C544,253.763106 521.595023,249.131453 515.617662,242.949933 C509.640301,236.768412 482.756643,225.955238 479.741924,233.680643 C476.727205,241.406048 439.410651,267.664048 464.801415,272.301685 C490.192179,276.939321 524.551878,278.483205 532.022133,275.389453 C539.492387,272.2957 544,253.763106 544,253.763106 Z" id="Shape" fill="#A8A8A8" fill-rule="nonzero"></path>
                <path d="M464.798308,269.570411 C490.205136,274.125021 524.572951,275.649108 532.046229,272.606817 C537.736571,270.294205 541.690288,259.178368 543.253251,254 L544,254.158882 C544,254.158882 539.519507,272.400859 532.046229,275.425497 C524.572951,278.450135 490.205136,276.9437 464.798308,272.38909 C457.46396,271.07096 455.368432,267.981593 456.155702,264.074279 C456.786676,266.628156 459.339515,268.593582 464.798308,269.570411 Z" id="Shape" fill="#000000" fill-rule="nonzero" opacity="0.2"></path>
                <path d="M593.676391,53.5847708 C593.276972,52.567957 592.640753,51.666067 591.822929,50.9573432 C585.804968,45.3533477 576.068497,47.0517075 568.596726,43.6313174 C566.859105,42.8442727 565.121484,41.7495111 563.239061,42.0513103 C560.626837,42.471462 558.19996,45.5072061 555.923676,44.1579865 L556.085854,44.6669027 L555.923676,44.5781382 L557.597585,49.7856525 C558.240504,51.7858113 558.918177,53.8451465 560.169264,55.5080005 C556.415187,58.8536612 554.580131,63.9175528 555.296601,68.9542528 C556.013072,73.9909528 559.183089,78.3116701 563.714011,80.4271397 L563.945694,80.9538087 L564.16,81.0484908 C564.656584,82.2130346 565.027533,83.429377 565.266286,84.6759979 C563.331734,84.9482089 559.954957,87.1377319 556.630309,90.3687578 L549.986804,90.1379702 C545.696306,89.9921985 541.544302,88.5507387 538.055139,85.9956294 L518.19413,71.4086718 C516.778673,71.5501988 515.444925,72.1516778 514.388739,73.1247845 C511.921317,70.4973568 509.83038,67.7574942 510.009934,66.1478989 C510.009934,66.1478989 500.771582,48.4896915 497.417973,57.3187952 C494.064364,66.1478989 503.713954,75.403072 503.713954,75.403072 L509.841964,83.5102248 C509.600693,84.9309678 509.447862,86.3659145 509.384391,87.8064241 C516.914082,96.6355278 543.389636,104.624328 543.389636,104.624328 L547.51359,104.825527 L547.51359,105.032645 C547.2598,106.138043 547.135365,107.270317 547.142898,108.405694 C547.142898,108.571387 547.142898,108.737081 547.142898,108.908692 C547.142898,109.080303 547.142898,109.133562 547.142898,109.245997 C547.351412,123.329956 549.239627,166.433972 549.239627,166.433972 C549.604527,166.268278 549.986804,166.11442 550.398041,165.966479 L550.102646,169.795185 C550.102646,169.795185 532.471583,172.316096 519.456801,177.363834 C506.442019,182.411572 506.02499,188.299614 506.02499,188.299614 L506.02499,240.244568 C502.30648,242.191469 496.439113,244.753802 493.433029,243.38683 C490.166301,241.901505 488.370759,243.150125 488.046403,244.452003 C487.984532,244.710544 487.984532,244.980507 488.046403,245.239048 C488.074986,245.354573 488.117803,245.465925 488.173829,245.570435 C488.233359,245.679047 488.307441,245.778636 488.393927,245.866317 C489.650807,247.126772 516.943042,258.062552 523.239023,256.376027 C523.436326,256.32486 523.629871,256.259606 523.81823,256.180746 L523.991992,256.091981 C524.107834,256.038722 524.223675,255.979546 524.333724,255.914452 C524.443774,255.849358 524.455358,255.825688 524.519071,255.784264 C524.582783,255.742841 524.710209,255.659994 524.79709,255.583065 C524.883971,255.506136 524.912931,255.476548 524.970852,255.423289 C525.028773,255.37003 525.13303,255.275348 525.208327,255.198419 C525.283624,255.12149 525.312584,255.074149 525.364713,255.014972 C525.416841,254.955796 525.509515,254.849279 525.573227,254.760514 C525.63694,254.67175 525.6659,254.624409 525.706445,254.559315 C525.746989,254.494221 525.83387,254.369951 525.891791,254.269351 C525.949712,254.168751 525.967088,254.127328 526.007633,254.056316 C526.048177,253.985305 526.123474,253.843282 526.169811,253.736764 C526.216147,253.630247 526.233523,253.588824 526.262484,253.517812 C526.291444,253.446801 526.360949,253.281107 526.407285,253.162754 L526.482582,252.943802 C526.528919,252.813614 526.569463,252.683426 526.610008,252.553238 L526.667929,252.346121 C526.708473,252.204098 526.743226,252.062075 526.777978,251.914134 L526.818522,251.718853 C526.853275,251.564994 526.882235,251.405218 526.911196,251.25136 L526.911196,251.073831 C526.911196,250.90222 526.963324,250.736526 526.986493,250.564915 L526.986493,250.416974 C526.986493,250.233528 527.027037,250.050081 527.038621,249.860717 L527.038621,249.742364 C527.038621,249.541165 527.050205,249.343911 527.073374,249.150601 L527.073374,249.067754 C527.073374,248.85472 527.073374,248.639713 527.073374,248.422733 L527.073374,248.381309 C527.06375,245.873493 526.79191,243.373904 526.262484,240.925096 L527.785798,196.67306 C536.054805,196.820591 544.32569,196.524301 552.564275,195.785416 L553.467838,216.899519 C553.467838,216.899519 553.467838,230.776361 558.101495,237.084554 C562.051687,242.481432 566.62163,266.353151 567.855341,273.128837 C566.158265,276.436792 562.914705,280.519957 557.261645,280.395687 C557.261645,280.395687 546.627403,279.454784 547.229779,282.443187 C547.246993,282.521857 547.270233,282.599024 547.299283,282.673974 C547.332597,282.759293 547.371292,282.842314 547.415125,282.922515 C547.455669,282.999444 547.507798,283.076373 547.559927,283.15922 L547.594679,283.206561 C547.658392,283.295325 547.722105,283.38409 547.803194,283.478772 L548.034876,283.739148 L548.104381,283.810159 C548.197054,283.904841 548.301312,284.005441 548.411361,284.111958 C553.867491,289.159697 585.776007,290 585.776007,290 L585.776007,289.887565 C585.776007,289.857977 585.776007,289.816553 585.776007,289.769212 C585.776007,288.307558 585.567493,280.644227 583.656109,274.880456 L584.096307,274.880456 C584.096307,274.880456 579.46265,232.409627 575.697805,227.361888 C575.697805,227.361888 574.695777,204.969577 576.960476,190.932959 L577.377505,190.779101 C587.959618,186.743277 588.712587,176.795741 587.623678,169.475633 C589.627734,170.13249 590.815108,170.58223 590.815108,170.58223 C590.815108,170.58223 590.780356,170.262678 590.710851,169.700503 L590.815108,169.741927 C590.815108,169.741927 590.612386,168.404542 590.282238,166.321537 C589.523477,160.593271 588.058083,150.580641 586.494224,145.852455 C586.239373,144.810952 586.001898,143.923308 585.776007,143.248698 C584.874527,140.408021 584.25551,137.481766 583.928337,134.514276 C583.50042,130.66943 583.283843,126.803095 583.279625,122.933475 C583.313559,117.761906 583.700637,112.599059 584.438039,107.482543 C585.080959,103.014733 585.654374,97.9314887 585.596453,94.3809108 C585.63975,93.144296 585.55432,91.906481 585.341602,90.6883098 C584.762395,88.0667998 582.306557,86.3625224 579.734878,85.2795962 C579.566908,85.2085846 579.398938,85.1553259 579.230968,85.090232 C579.29468,84.0960702 579.375769,82.9717205 579.480027,81.7822769 C580.102735,82.2234044 580.875449,82.3838648 581.617301,82.2260992 C582.723586,81.9775587 583.5171,81.0425732 584.223732,80.1490111 C587.942242,75.4800012 591.753424,70.6157094 593.195649,64.8164322 C593.766744,62.2267911 594.031213,59.576423 593.983371,56.922314 C593.983371,56.7763458 593.983371,56.6303776 593.983371,56.4844094 C594.043638,55.5070501 593.939814,54.5263598 593.676391,53.5847708 Z" id="Shape" fill="url(#linearGradient-5)" fill-rule="nonzero"></path>
                <path d="M560,76.131321 C560,76.131321 565.590395,84.6208439 564.395326,88.6620894 C563.200257,92.7033349 577.575557,90.2785876 577.575557,90.2785876 C577.575557,90.2785876 577.977744,74.5148228 580.770068,70.8747944 C583.562393,67.2347661 560,76.131321 560,76.131321 Z" id="Shape" fill="#F7C4A7" fill-rule="nonzero"></path>
                <path d="M523,81.4058427 C523,81.4058427 511.343136,71.6266207 511.742106,67.956481 C511.742106,67.956481 502.901161,50.8369795 499.68049,59.3967302 C496.459819,67.956481 505.71708,76.9207679 505.71708,76.9207679 L516.974974,92 L523,81.4058427 Z" id="Shape" fill="#F7C4A7" fill-rule="nonzero"></path>
                <path d="M510.757814,237 C510.757814,237 499.752004,244.047398 495.280527,241.978492 C490.809051,239.909585 489.168142,243.224605 490.392963,244.464756 C491.617784,245.704907 518.095021,256.484683 524.207407,254.827173 C530.319792,253.169664 527.207926,239.593585 527.207926,239.593585 L510.757814,237 Z" id="Shape" fill="#535461" fill-rule="nonzero"></path>
                <path d="M568.30989,267.630401 C568.30989,267.630401 565.693907,278.834853 556.642143,278.62975 C556.642143,278.62975 542.960321,277.404996 548.192287,282.298153 C553.424253,287.191311 584,288 584,288 C584,288 584,271.298804 578.368692,267.630401 C572.737383,263.961998 568.30989,267.630401 568.30989,267.630401 Z" id="Shape" fill="#535461" fill-rule="nonzero"></path>
                <path d="M552,187.737251 L553.226154,216.429405 C553.226154,216.429405 553.226154,229.955874 557.714232,236.105877 C562.202309,242.25588 567.5,273 567.5,273 L583,273 C583,273 578.511923,231.600985 574.845193,226.677444 C574.845193,226.677444 573.214232,190.196073 578.95193,182 L552,187.737251 Z" id="Shape" fill="#AB3440" fill-rule="nonzero"></path>
                <path d="M552,187.737251 L553.226154,216.429405 C553.226154,216.429405 553.226154,229.955874 557.714232,236.105877 C562.202309,242.25588 567.5,273 567.5,273 L583,273 C583,273 578.511923,231.600985 574.845193,226.677444 C574.845193,226.677444 573.214232,190.196073 578.95193,182 L552,187.737251 Z" id="Shape" fill="#AB3440" fill-rule="nonzero" opacity="0.1"></path>
                <path d="M584.454829,161.030651 C584.454829,161.030651 593.767232,183.598025 576.766276,190.168124 C559.76532,196.738223 529.040211,195.911796 529.040211,195.911796 L527.422181,243.514022 C527.422181,243.514022 508.407418,245.975596 508,239.818711 L508,187.706551 C508,187.706551 508.407418,181.96288 520.95006,177.039733 C533.492703,172.116586 550.464558,169.666818 550.464558,169.666818 L551.273573,159 L584.454829,161.030651 Z" id="Shape" fill="#AB3440" fill-rule="nonzero"></path>
                <path d="M568.87203,87.1187101 C572.096534,86.7566114 575.358764,87.226044 578.358025,88.4837385 C580.832633,89.5414878 583.214298,91.2078861 583.754529,93.7665756 C584.393512,96.7980023 583.684822,103.599507 582.87157,109.349172 C581.570537,118.369515 581.404614,127.521731 582.377811,136.584739 C582.796054,140.360726 583.371139,143.675795 584.155346,145.117644 C586.577673,149.638192 589,171 589,171 C589,171 562.348592,160.729786 549.022888,166.86355 C549.022888,166.86355 547.20469,124.754493 547.001378,110.997843 C546.844536,100.361258 560.123769,88.2000962 564.567606,87.7864513 C567.170011,87.5678103 566.281243,87.3905339 568.87203,87.1187101 Z" id="Shape" fill="#000000" fill-rule="nonzero" opacity="0.1"></path>
                <path d="M568.87203,86.1187101 C572.096534,85.7566114 575.358764,86.226044 578.358025,87.4837385 C580.832633,88.5414878 583.214298,90.2078861 583.754529,92.7665756 C584.393512,95.7980023 583.684822,102.599507 582.87157,108.349172 C581.570537,117.369515 581.404614,126.521731 582.377811,135.584739 C582.692133,138.481731 583.287546,141.339964 584.155346,144.117644 C585.973543,149.660486 589,170 589,170 C589,170 562.348592,159.729786 549.022888,165.86355 C549.022888,165.86355 547.20469,123.754493 547.001378,109.997843 C546.844536,99.3612582 560.123769,87.2000962 564.567606,86.7864513 C567.170011,86.585538 566.281243,86.4082616 568.87203,86.1187101 Z" id="Shape" fill="#E14B5A" fill-rule="nonzero"></path>
                <path d="M575.840659,109 L547.39593,107.336072 C547.39593,107.336072 545.587905,92.8515176 549.699147,93.0011514 L577.827184,94.0186614 C577.827184,94.0186614 583.850096,101.506338 575.840659,109 Z" id="Shape" fill="#000000" fill-rule="nonzero" opacity="0.1"></path>
                <path d="M576.780771,108 L543.890386,106.361872 C543.890386,106.361872 518.312869,98.5719237 511,89.9746967 C511,89.9746967 511.408866,74.8190641 519.527786,74 L538.738668,88.212825 C542.092144,90.6932795 546.107241,92.0995835 550.262861,92.2492201 L578.795899,93.2509532 C578.795899,93.2509532 584.905532,100.62253 576.780771,108 Z" id="Shape" fill="#E14B5A" fill-rule="nonzero"></path>
                <path d="M577.373752,78.8932839 C577.850611,74.8850644 579.568452,73.5530461 580.769218,71.916914 C583.567173,68.1094095 560,77.3909618 560,77.3909618 C561.214093,79.3730413 562.278368,81.4535704 563.18289,83.6131296 C565.064008,84.5291049 567.110412,85.0022343 569.180971,84.9998884 C572.662616,85.0242175 574.891788,81.0646562 577.373752,78.8932839 Z" id="Shape" fill="#000000" fill-rule="nonzero" opacity="0.1"></path>
                <ellipse id="Oval" fill="#F7C4A7" fill-rule="nonzero" cx="569.5" cy="69" rx="14.5" ry="15"></ellipse>
                <path d="M560.650414,58.4282032 C559.084638,56.7086945 558.334003,54.4160163 557.624419,52.1942456 L556,47.1066271 C558.210853,48.4243262 560.568313,45.4580259 563.101704,45.0503074 C564.919646,44.7548592 566.620302,45.8243817 568.303365,46.5984561 C575.557542,49.9429301 585.010842,48.282511 590.857579,53.7601212 C591.65464,54.4557149 592.272409,55.3356895 592.657929,56.3246118 C592.93023,57.2638578 593.041295,58.2430721 592.986331,59.2200045 C593.033749,61.8116563 592.777863,64.3999082 592.223968,66.9312032 C590.834122,72.5979003 587.127865,77.3487078 583.515438,81.9104285 C582.829311,82.7790463 582.061084,83.6831178 580.982047,83.9372033 C578.882617,84.4099205 577.258197,82.1231512 576.44892,80.1200122 C575.378602,77.4539331 574.592282,74.6808687 574.103188,71.8474618 C573.959485,70.6525009 573.618566,69.4901467 573.094523,68.4084444 C571.833692,66.1512199 568.719732,64.0180837 566.825554,62.2690302 C564.931375,60.5199767 562.386256,60.3427077 560.650414,58.4282032 Z" id="Shape" fill="#000000" fill-rule="nonzero" opacity="0.1"></path>
                <path d="M560.650414,58.4282032 C559.084638,56.7086945 558.334003,54.4160163 557.624419,52.1942456 L556,47.1066271 C558.210853,48.4243262 560.568313,45.4580259 563.101704,45.0503074 C564.919646,44.7548592 566.620302,45.8243817 568.303365,46.5984561 C575.557542,49.9429301 585.010842,48.282511 590.857579,53.7601212 C591.65464,54.4557149 592.272409,55.3356895 592.657929,56.3246118 C592.93023,57.2638578 593.041295,58.2430721 592.986331,59.2200045 C593.033749,61.8116563 592.777863,64.3999082 592.223968,66.9312032 C590.834122,72.5979003 587.127865,77.3487078 583.515438,81.9104285 C582.829311,82.7790463 582.061084,83.6831178 580.982047,83.9372033 C578.882617,84.4099205 577.258197,82.1231512 576.44892,80.1200122 C575.378602,77.4539331 574.592282,74.6808687 574.103188,71.8474618 C573.977584,70.6387929 573.650453,69.4601476 573.135573,68.3611727 C571.874742,66.1039482 568.760783,63.970812 566.866604,62.2217585 C564.972425,60.472705 562.386256,60.3427077 560.650414,58.4282032 Z" id="Shape" fill="#AB3440" fill-rule="nonzero"></path>
                <ellipse id="Oval" fill="#F7C4A7" fill-rule="nonzero" cx="573" cy="70.5" rx="1" ry="2.5"></ellipse>
                <path d="M581,142 C581,142 580.176587,144.344625 576.05952,143.956665 C571.942454,143.568706 560,142.781542 560,143.956665" id="Shape" fill="#000000" fill-rule="nonzero" opacity="0.1"></path>
                <path d="M548.176711,281.740435 C547.628444,281.296326 547.22436,280.689011 547.018693,280 C546.914471,280.540135 547.238716,281.248312 548.176711,282.16054 C553.387792,287.165791 584,288 584,288 C584,288 584,287.849962 584,287.579895 C583.826297,287.579895 553.393582,286.733683 548.176711,281.740435 Z" id="Shape" fill="#FFFFFF" fill-rule="nonzero" opacity="0.5"></path>
                <path d="M524.211033,253.984059 C518.098903,255.645413 491.622775,244.846613 490.398005,243.597609 C490.235821,243.431824 490.118693,243.225884 490.058117,243 C489.913619,243.507593 490.042867,244.055269 490.398005,244.440238 C491.622775,245.689242 518.098903,256.488042 524.211033,254.826688 C527.35793,253.972107 528.055287,249.950196 527.996686,246.250995 C527.943944,249.687248 527.123524,253.189239 524.211033,253.984059 Z" id="Shape" fill="#FFFFFF" fill-rule="nonzero" opacity="0.5"></path>
                <path d="M428,86.812737 C428,86.812737 392.646695,76.1773356 390.310831,106.428617 C387.974967,136.679898 399.654288,186.505538 390.310831,202.520922 C380.967374,218.536306 347.628753,241.669639 365.200291,243.745707 C382.771829,245.821775 391.478763,248.787587 386.223069,259.46451 C380.967374,270.141433 353.52097,280.225193 359.36063,287.936304 C365.200291,295.647415 368.120121,305.138013 362.280461,314.628611 C356.4408,324.119209 336.001988,330.050833 339.505785,336.575619 C343.009581,343.100405 355.856834,346.659379 349.433208,353.777328 C343.009581,360.895276 324.386904,377.088609 331.657281,376.999635" id="Shape" stroke="#2E2E30" stroke-width="3"></path>
                <path d="M293.330583,285.795319 C291.916026,277.75669 291.047192,269.627633 290.730304,261.466383 C290.173437,247.668632 281.182556,235.722647 268.27968,231.636734 C265.987023,230.918734 263.462198,230.242271 260.670381,229.637014 C236.217309,224.326186 228.78794,228.960551 227.946331,229.571741 C227.23335,228.233928 226.614601,226.845833 226.094793,225.418021 C226.054164,225.275607 226.013535,225.12726 225.972905,224.978913 C230.811621,219.703332 233.759755,212.907694 234.33675,205.699715 C238.399686,201.468853 240.796818,196.371645 240.796818,190.864998 C240.796818,186.117888 239.05556,181.70901 235.944512,177.869786 L235.944512,170.446493 C235.934899,152.523911 221.720629,137.999997 204.189763,138 L201.612701,138 C184.075037,138 169.857952,152.53476 169.857952,170.464295 L169.857952,178.510645 C167.077661,182.02532 165.532405,186.392713 165.469981,190.912469 C165.469981,196.28857 167.756834,201.290837 171.680469,205.468293 C172.213687,212.941656 175.294721,219.986885 180.386761,225.376483 C180.560887,226.59293 180.735013,227.910253 180.909139,229.292849 L137.162924,238.751464 C137.162924,238.751464 120.295935,239.457597 109.436286,262.374268 C100.254051,281.748408 81.9650335,331.616793 76.5555241,346.457444 C75.5746153,349.145495 75.0232168,350.688305 75.0232168,350.688305 C75.0232168,350.688305 75.2031468,350.504355 75.5455943,350.189859 L75,351.619926 C75,351.619926 75.266993,351.346967 75.7719579,350.895991 C75.0058042,357.108771 74.8955245,367.771966 82.8588795,369.101156 C89.5337032,370.216727 106.719923,370.673636 119.709711,370.881322 L120.609361,370.881322 C129.216982,371 135.764113,371 135.764113,371 L135.764113,370.881322 L275.453664,370.881322 L275.453664,369.421586 C275.454565,368.09189 275.191965,366.775788 274.681706,365.552692 L274.879049,365.315336 C275.626963,366.32401 276.124834,367.502843 276.330098,368.751057 C276.315152,368.872791 276.29384,368.99362 276.266251,369.113024 L276.34751,368.89347 C276.383581,369.29095 276.356136,369.691782 276.266251,370.080248 C276.266251,370.080248 294.1838,322.876178 293.992262,294.719885 C294.045497,291.730412 293.823965,288.742434 293.330583,285.795319 Z M181.634663,235.642108 C181.404696,234.295963 181.257368,232.936423 181.193544,231.571461 L181.193544,231.535858 C181.344453,232.859115 181.495362,234.235776 181.634663,235.642108 Z M127.348031,337.034432 L127.348031,348.308817 L120.452648,349.816024 L127.348031,337.034432 Z" id="Shape" fill="url(#linearGradient-6)" fill-rule="nonzero"></path>
                <path d="M203.002922,143 C211.492653,143.001562 219.633879,146.402262 225.634831,152.453654 C231.635782,158.505045 235.004651,166.711185 234.999995,175.266017 L235,189 L171,189 L171,175.266017 C171,157.455754 185.328196,143.017683 203.002922,143.017683 L203.002922,143 Z" id="Shape" fill="#E14B5A" fill-rule="nonzero"></path>
                <ellipse id="Oval" fill="#E14B5A" fill-rule="nonzero" cx="203.5" cy="193.5" rx="36.5" ry="25.5"></ellipse>
                <path d="M179.205995,217.92815 C179.205995,217.92815 186.817844,258.064043 179.205995,268.892305 C171.594145,279.720567 202.504109,284 202.504109,284 L234.520719,272.258085 L239,243.374861 C239,243.374861 219.513665,232.322606 223.54209,210 L179.205995,217.92815 Z" id="Shape" fill="#F7C4A7" fill-rule="nonzero"></path>
                <path d="M273.855006,353.957452 C273.855006,353.957452 275.865637,362.754551 264.912373,364.334727 C258.441296,365.294876 251.860321,365.215275 245.413926,364.09888 L243,342 L268.489426,342 L273.855006,353.957452 Z" id="Shape" fill="#F7C4A7" fill-rule="nonzero"></path>
                <path d="M81.0573357,342.619633 C81.0573357,342.619633 76.2501858,362.410984 87.1359419,364.2348 C98.021698,366.058617 138,366 138,366 L138,342.601984 L119.903519,346.520247 L102.910128,330 L81.0573357,342.619633 Z" id="Shape" fill="#F7C4A7" fill-rule="nonzero"></path>
                <path d="M181.531643,230.963301 L138.894031,240.123402 C138.894031,240.123402 122.638659,240.803461 112.174228,262.748674 C101.709796,284.693886 79,347.359857 79,347.359857 C79,347.359857 98.3690929,327.454822 121.078889,348.719976 L136.210993,320.896687 L132.90521,365 L250.219755,365 L250.219755,344.184277 C250.219755,344.184277 274.710483,357.531177 272.91791,365 C272.91791,365 293.870054,310.134012 289.365343,285.196539 C288.00198,277.488254 287.165773,269.693268 286.862726,261.867554 C286.313507,248.66101 277.646657,237.233666 265.217998,233.328724 C263.006382,232.636838 260.561966,231.99226 257.884747,231.412732 C232.724715,225.984086 226.27029,231.412732 226.27029,231.412732 C226.27029,231.412732 221.398917,247.527176 221.486218,254.824506 C221.596798,264.215236 208.350387,270.436299 208.350387,270.436299 C208.350387,270.436299 188.760133,265.705453 187.863847,261.837986 C186.967561,257.970519 179.971873,235.487173 181.531643,230.963301 Z" id="Shape" fill="#000000" fill-rule="nonzero" opacity="0.1"></path>
                <path d="M181.531643,229.939647 L138.894031,239.099748 C138.894031,239.099748 122.638659,239.779807 112.174228,261.72502 C101.709796,283.670232 79,346.336203 79,346.336203 C79,346.336203 98.3690929,326.431168 121.078889,347.696321 L136.210993,319.873032 L132.90521,364 L250.219755,364 L250.219755,343.184277 C250.219755,343.184277 274.710483,356.531177 272.91791,364 C272.91791,364 293.870054,309.134012 289.365343,284.196539 C288.00198,276.488254 287.165773,268.693268 286.862726,260.867554 C286.313507,247.66101 277.646657,236.233666 265.217998,232.328724 C263.006382,231.636838 260.561966,230.99226 257.884747,230.412732 C232.724715,224.984086 226.27029,230.412732 226.27029,230.412732 C226.27029,230.412732 221.398917,246.527176 221.486218,253.824506 C221.596798,263.215236 208.350387,269.436299 208.350387,269.436299 C208.350387,269.436299 188.760133,264.705453 187.863847,260.837986 C186.967561,256.970519 179.971873,234.463519 181.531643,229.939647 Z" id="Shape" fill="#AB3440" fill-rule="nonzero"></path>
                <path d="M225,228.189947 C223.218428,222.996349 222.818752,217.406352 223.842444,212 L180,219.981715 C180,219.981715 180.630868,223.39138 181.348553,228.505878 C187.072696,234.626908 194.98593,238.058961 203.237244,237.999233 C211.488558,237.939506 219.354171,234.393237 224.994212,228.189947 L225,228.189947 Z" id="Shape" fill="#000000" fill-rule="nonzero" opacity="0.1"></path>
                <path d="M231.997752,204.821079 C232.198479,221.833337 218.930247,235.791582 202.362326,235.997692 C185.794406,236.203802 172.200732,222.579727 172.000005,205.56747 C172.000005,205.318673 172.000005,205.069876 172.000005,204.821079 C171.993467,193.046012 178.525015,182.297329 188.828219,177.127622 C189.728185,176.677418 190.653151,176.270655 191.603115,175.907333 C196.543787,174.041774 201.873254,173.533331 207.064073,174.432323 C220.749749,176.827791 231.046805,188.552665 231.957369,202.777391 C231.984291,203.464544 231.997752,204.145774 231.997752,204.821079 Z" id="Shape" fill="#F7C4A7" fill-rule="nonzero"></path>
                <g id="Group" opacity="0.1" transform="translate(172.000000, 175.000000)" fill="#000000" fill-rule="nonzero">
                    <path d="M20.0602857,1.81333333 L20.1009524,1.81333333 C19.1443175,2.17283951 18.2128571,2.57975309 17.3065714,3.03407407 C6.93101901,8.20569325 0.353606777,18.9583537 0.360190476,30.7377778 C0.360190476,30.9866667 0.360190476,31.2355556 0.360185538,31.4844444 C1.30011683,31.4593747 2.22440839,31.2332616 3.0732381,30.8207407 C10.4455238,27.3125926 14.8607619,16.5985185 16.5978095,9.0962963 C17.2368571,6.38814815 17.8294286,3.37185185 20.0602857,1.81333333 Z" id="Shape"></path>
                    <path d="M43.188,2.68444444 C40.7969848,1.56133081 38.2713591,0.764353194 35.6762857,0.314074074 C37.8054806,0.812625465 39.7072334,2.02999545 41.0733333,3.76888889 C41.7416002,4.69783309 42.2957013,5.70684048 42.7232381,6.77333333 C34.5813043,3.14303735 25.2877009,3.34017242 17.3007619,7.31259259 C19.2004762,11.5555556 25.0797143,13.8666667 29.0069524,15.4192593 C33.306,17.1140741 37.6573333,18.662716 42.0609524,20.0651852 L38.174381,16.8474074 L46.9525714,18.2696296 C47.0487166,16.4869341 46.8423514,14.7006912 46.3425714,12.9896296 C48.0157143,14.3703704 50.252381,14.8325926 52.0765714,16.0118519 C55.498381,18.2103704 56.9217143,22.4533333 58.7865714,26.0859259 C59.2170503,27.0940382 59.8905449,27.9746887 60.744381,28.6459259 C60.0062141,17.3615068 53.2672683,7.39629724 43.188,2.68444444 Z" id="Shape"></path>
                </g>
                <path d="M191.958787,176 L192,176 C191.030517,176.364 190.086547,176.776 189.168089,177.236 C178.668834,182.46731 172.007971,193.333834 172,205.244 C172,205.496 172,205.748 172,206 C172.95255,205.974617 173.889255,205.745677 174.749485,205.328 C182.220783,201.776 186.695319,190.928 188.455696,183.332 C189.097439,180.644 189.697969,177.572 191.958787,176 Z" id="Shape" fill="#AB3440" fill-rule="nonzero"></path>
                <path d="M214.622894,177.342606 C212.256294,176.232648 209.756459,175.445005 207.187884,175 C209.295337,175.492712 211.177671,176.695823 212.529821,178.414348 C213.191264,179.332412 213.739707,180.329601 214.162878,181.383602 C206.104084,177.795828 196.905381,177.990654 189,181.916545 C190.880316,186.10981 196.699519,188.393851 200.586654,189.928258 C204.841803,191.603221 209.148703,193.133724 213.507355,194.519766 L209.660471,191.339678 L218.349024,192.745242 C218.444187,190.983427 218.239929,189.218106 217.745253,187.527086 C219.401311,188.891654 221.615138,189.348463 223.420701,190.513909 C226.807569,192.686676 228.216368,196.879941 230.062182,200.469985 C230.488265,201.46629 231.154883,202.336625 232,203 C231.269371,191.847756 224.599239,181.999269 214.622894,177.342606 Z" id="Shape" fill="#AB3440" fill-rule="nonzero"></path>
                <path d="M169,200 C169,200 200.061369,161.004984 236,200 L232.891543,191.25893 C232.891543,191.25893 216.032805,166.383203 204.051329,171.761422 C192.069852,177.139641 180.31455,180.947748 180.31455,180.947748 L169,200 Z" id="Shape" fill="#000000" fill-rule="nonzero" opacity="0.1"></path>
                <path d="M169,199 C169,199 200.061369,160.004984 236,199 L232.891543,190.25893 C232.891543,190.25893 216.032805,165.383203 204.051329,170.761422 C192.069852,176.139641 180.31455,179.947748 180.31455,179.947748 L169,199 Z" id="Shape" fill="#E14B5A" fill-rule="nonzero"></path>
                <path d="M143.576268,284 C143.576268,284 136.88008,302.268657 146.253576,318.716418 C155.627072,335.164179 138,342 138,342" id="Shape" fill="#000000" fill-rule="nonzero" opacity="0.1"></path>
                <path d="M251.216872,268 C251.216872,268 263.157832,282.98276 255.353283,296.375271 C247.548734,309.767781 248.005,342 248.005,342" id="Shape" fill="#000000" fill-rule="nonzero" opacity="0.1"></path>
                <path d="M133.681043,355 L262.318957,355 C268.217934,355 273,359.924868 273,366 L123,366 C123,359.924868 127.782066,355 133.681043,355 Z" id="Shape" fill="#2E2E30" fill-rule="nonzero"></path>
                <path d="M152.632507,280 L242.367493,280 C254.867082,280 265,290.306546 265,303.020314 L265,357 L130,357 L130,303.020314 C130,290.306546 140.132918,280 152.632507,280 Z" id="Shape" fill="#2E2E30" fill-rule="nonzero"></path>
                <circle id="Oval" fill="#FFFFFF" fill-rule="nonzero" cx="197" cy="322" r="8"></circle>
                <path d="M171,181 C171,181 201.792067,149.897899 235,180.408818" id="Shape" stroke="#000000" opacity="0.1"></path>
                <rect id="Rectangle-path" fill="#FBB0B7" fill-rule="nonzero" x="239" y="180" width="3" height="18"></rect>
                <path d="M235,191 C241.075132,191 246,195.77158 246,201.657622 L246,202.342378 C246,208.22842 241.075132,213 235,213 L235,191 Z" id="Shape" fill="#F8BEC4" fill-rule="nonzero"></path>
                <rect id="Rectangle-path" fill="#FBB0B7" fill-rule="nonzero" x="233" y="190" width="5" height="24" rx="2.5"></rect>
                <rect id="Rectangle-path" fill="#FBB0B7" fill-rule="nonzero" transform="translate(164.500000, 189.000000) rotate(-180.000000) translate(-164.500000, -189.000000) " x="163" y="180" width="3" height="18"></rect>
                <path d="M159,191.005851 C165.075132,191.005851 170,195.776162 170,201.660638 L170,202.345213 C170,208.229689 165.075132,213 159,213 L159,191 L159,191.005851 Z" id="Shape" fill="#F8BEC4" fill-rule="nonzero" transform="translate(164.500000, 202.000000) rotate(180.000000) translate(-164.500000, -202.000000) "></path>
                <rect id="Rectangle-path" fill="#FBB0B7" fill-rule="nonzero" transform="translate(169.500000, 202.000000) rotate(-180.000000) translate(-169.500000, -202.000000) " x="167" y="190" width="5" height="24" rx="2.5"></rect>
                <path d="M238.734701,160.474273 C234.574001,151.609247 225.514599,140.870992 205.983715,140 L205.751273,140 L198.830332,140.340045 L198.830332,140.375839 C179.42729,141.294556 170.414377,151.985086 166.288543,160.83818 C163.531489,166.833842 162.06861,173.370192 162,180 L164.388335,179.940343 L166.77667,179.886652 C166.864765,173.976506 168.173988,168.152889 170.617763,162.800895 C175.88256,151.698732 185.575364,145.786726 199.417247,145.243848 L205.536265,144.897837 C219.378148,145.440716 229.070952,151.346756 234.335749,162.454884 C236.793968,167.799588 238.119033,173.619126 238.22333,179.52871 L240.611665,179.582401 L243,179.642058 C242.939501,173.011999 241.484549,166.473606 238.734701,160.474273 Z" id="Shape" fill="#F8BEC4" fill-rule="nonzero"></path>
                <rect id="Rectangle-path" fill="url(#linearGradient-7)" fill-rule="nonzero" x="22" y="366" width="326" height="89"></rect>
                <rect id="Rectangle-path" fill="#000000" fill-rule="nonzero" opacity="0.1" x="22" y="372" width="326" height="12"></rect>
                <rect id="Rectangle-path" fill="#FD384B" fill-rule="nonzero" x="0" y="365" width="370" height="12"></rect>
                <path d="M253,336 C253,336 266.96649,362.005571 301.882714,354.913143 C336.798938,347.820714 319.922763,420.518107 319.922763,420.518107 C319.922763,420.518107 314.208141,455.200082 318.229326,454.99913" id="Shape" stroke="#292E34" stroke-width="3"></path>
            </g>
        </g>
    </g>
</svg>