<?xml version="1.0" encoding="UTF-8"?>
<svg width="307px" height="299px" viewBox="0 0 307 299" version="1.1" xmlns="http://www.w3.org/2000/svg" xmlns:xlink="http://www.w3.org/1999/xlink">
    <!-- Generator: Sketch 49.3 (51167) - http://www.bohemiancoding.com/sketch -->
    <title>undraw_processing_qj6a</title>
    <desc>Created with Sketch.</desc>
    <defs>
        <linearGradient x1="69841%" y1="68691%" x2="69841%" y2="41100%" id="linearGradient-1">
            <stop stop-color="#808080" stop-opacity="0.25" offset="0%"></stop>
            <stop stop-color="#808080" stop-opacity="0.12" offset="54%"></stop>
            <stop stop-color="#808080" stop-opacity="0.1" offset="100%"></stop>
        </linearGradient>
        <linearGradient x1="52100%" y1="59250%" x2="56400%" y2="59250%" id="linearGradient-2">
            <stop stop-color="#808080" stop-opacity="0.25" offset="0%"></stop>
            <stop stop-color="#808080" stop-opacity="0.12" offset="54%"></stop>
            <stop stop-color="#808080" stop-opacity="0.1" offset="100%"></stop>
        </linearGradient>
        <linearGradient x1="58700%" y1="66600%" x2="58700%" y2="50500%" id="linearGradient-3">
            <stop stop-color="#808080" stop-opacity="0.25" offset="0%"></stop>
            <stop stop-color="#808080" stop-opacity="0.12" offset="54%"></stop>
            <stop stop-color="#808080" stop-opacity="0.1" offset="100%"></stop>
        </linearGradient>
        <linearGradient x1="69250%" y1="52000%" x2="69250%" y2="50300%" id="linearGradient-4">
            <stop stop-color="#808080" stop-opacity="0.25" offset="0%"></stop>
            <stop stop-color="#808080" stop-opacity="0.12" offset="54%"></stop>
            <stop stop-color="#808080" stop-opacity="0.1" offset="100%"></stop>
        </linearGradient>
        <linearGradient x1="69650%" y1="49200%" x2="69650%" y2="40700%" id="linearGradient-5">
            <stop stop-color="#808080" stop-opacity="0.25" offset="0%"></stop>
            <stop stop-color="#808080" stop-opacity="0.12" offset="54%"></stop>
            <stop stop-color="#808080" stop-opacity="0.1" offset="100%"></stop>
        </linearGradient>
        <linearGradient x1="69650%" y1="50300%" x2="69650%" y2="48200%" id="linearGradient-6">
            <stop stop-color="#808080" stop-opacity="0.25" offset="0%"></stop>
            <stop stop-color="#808080" stop-opacity="0.12" offset="54%"></stop>
            <stop stop-color="#808080" stop-opacity="0.1" offset="100%"></stop>
        </linearGradient>
        <linearGradient x1="69500%" y1="44800%" x2="69500%" y2="43800%" id="linearGradient-7">
            <stop stop-color="#808080" stop-opacity="0.25" offset="0%"></stop>
            <stop stop-color="#808080" stop-opacity="0.12" offset="54%"></stop>
            <stop stop-color="#808080" stop-opacity="0.1" offset="100%"></stop>
        </linearGradient>
    </defs>
    <g id="Welcome" stroke="none" stroke-width="1" fill="none" fill-rule="evenodd">
        <g id="Menu" transform="translate(-717.000000, -469.000000)" fill-rule="nonzero">
            <g id="undraw_processing_qj6a" transform="translate(717.000000, 469.000000)">
                <path d="M136.12,154 C136.501044,153.577023 136.573228,152.959451 136.3,152.46 C132,143.85 127.69,146.01 114.97,121.4 C101.43,95.23 104.8,86.46 99.73,81.46 C97.73,79.46 95.67,72.78 92.95,71.61 L91.19,64.55 C92.7829394,64.7268239 94.3942889,64.4783932 95.86,63.83 C98.66,62.59 100.79,60.23 102.68,57.83 C105.599066,54.2603189 107.95929,50.268169 109.68,45.99 C110.843457,42.8689277 111.51807,39.586936 111.68,36.26 C111.77544,34.5934349 111.745355,32.9220508 111.59,31.26 C114.721144,30.7435924 117.685415,29.492773 120.24,27.61 C123.277748,25.1639495 125.243343,21.630901 125.72,17.76 C125.72,17.37 125.81,16.99 125.83,16.6 C125.856231,16.140374 125.856231,15.679626 125.83,15.22 C125.53496,10.4351889 122.970673,6.07961763 118.93,3.5 C115.299763,1.40661304 111.093426,0.533798093 106.93,1.01 C102.774783,1.51600261 98.6954954,2.51987663 94.78,4 C93.78,4.32 92.34,4.73 91.03,5.3 C88.2055557,4.35674749 85.2477837,3.87391483 82.27,3.87 C77.41,3.87 72.65,5.15 67.96,6.41 L52.17,10.64 C48.67,11.58 45.02,12.64 42.41,15.11 C42.1797155,15.3338298 41.9626804,15.5708989 41.76,15.82 L41.64,15.97 C41.4350117,16.2291354 41.2447131,16.4995598 41.07,16.78 C39.51,19.3 39.17,22.64 41.07,24.86 C42.0177928,25.8756159 43.1743016,26.673914 44.46,27.2 C46.0071668,27.913472 47.6008007,28.5215252 49.23,29.02 C46.2976131,33.3386154 44.7330751,38.4399154 44.74,43.66 C44.74,43.96 44.74,44.25 44.74,44.55 C44.74,44.85 44.74,45.14 44.74,45.44 C44.74,59.8491091 56.4208909,71.53 70.83,71.53 L71.26,71.53 L72.02,77.65 C68.4730166,81.3588491 65.4728392,85.5543834 63.11,90.11 C60.1518603,92.8863684 58.5553938,96.8172562 58.74,100.87 C58.69,105.21 59.87,110.52 61.02,117.87 L23.93,102.11 L0.77,151.99 L18.59,158.56 C10.22,158.94 5.59,165.06 5.66,171.29 C5.53696873,174.736983 6.86454643,178.077691 9.32,180.5 C15.77,186.95 23.6,254.13 23.6,254.13 L26.86,254.13 L26.86,261.18 C13.65,261.98 0.25,263.61 0.25,266.92 C0.353109493,270.151342 1.90237633,273.165437 4.47,275.13 C4.28,274.9 4.09,274.65 3.91,274.39 C4.90209691,275.410546 6.04139054,276.276813 7.29,276.96 L79.04,276.96 L79.04,262.14 L79.16,262.14 L79.16,260.35 C79.16,260.35 76.56,260.35 72.52,260.42 L72.52,254.08 L75.78,254.08 C78.69,227.86 66,193.84 63.25,186.88 C67.72,186.88 72.42,186.82 77.08,186.56 C96.87,187.45 130.9,187.23 137.75,175.81 C145.36,163.19 139.27,156.44 136.12,154 Z M36.69,185.6 C36.69,185.6 38.18,185.75 40.69,185.94 C43.38,193.61 45.37,206.21 46.78,218.51 C44.2960312,207.289438 40.9220227,196.284619 36.69,185.6 Z M65.32,69.16 C67.1433167,69.5573046 69.0038992,69.7584487 70.87,69.76 L71.07,69.76 L71.23,71.07 C69.1900604,70.6695959 67.2057712,70.0249537 65.32,69.15 L65.32,69.16 Z M53,260.61 L52.46,260.61 L52.46,260.35 C52.46,260.35 50.13,260.35 46.46,260.41 L46.46,254.08 L52.98,254.08 L53,260.61 Z" id="Shape" fill="url(#linearGradient-1)"></path>
                <polygon id="Shape" fill="url(#linearGradient-2)" points="69.03 184 53 344 72.03 345 96 184"></polygon>
                <polygon id="Shape" fill="#FBB0B7" points="70 184 58 342 70 342 87 184"></polygon>
                <polygon id="Shape" fill="url(#linearGradient-3)" points="101 338 120.9 338 137 177 115.9 177"></polygon>
                <polygon id="Shape" fill="#FBB0B7" points="117 177 105 335 117 335 134 177"></polygon>
                <rect id="Rectangle-path" fill="url(#linearGradient-4)" x="45" y="175" width="359" height="17"></rect>
                <rect id="Rectangle-path" fill="#FBB0B7" x="48" y="175" width="288" height="15"></rect>
                <rect id="Rectangle-path" fill="url(#linearGradient-5)" x="161" y="79" width="135" height="85"></rect>
                <rect id="Rectangle-path" fill="#FFFFFF" x="164" y="82" width="126" height="79"></rect>
                <rect id="Rectangle-path" fill="url(#linearGradient-6)" x="208" y="154" width="41" height="21"></rect>
                <rect id="Rectangle-path" fill="#FFFFFF" x="209.5" y="154" width="35" height="21"></rect>
                <rect id="Rectangle-path" fill="#F5F5F5" x="290" y="82" width="4" height="79"></rect>
                <rect id="Rectangle-path" fill="#F5F5F5" x="244" y="154" width="3" height="21"></rect>
                <rect id="Rectangle-path" fill="url(#linearGradient-7)" x="222" y="110" width="10" height="10"></rect>
                <rect id="Rectangle-path" fill="#F5F5F5" x="223" y="111" width="8" height="8"></rect>
                <polygon id="Shape" fill="#FBB0B7" points="31.84 102.1 97.23 129.89 75.22 171.7 10.58 147.88"></polygon>
                <rect id="Rectangle-path" fill="#F8C198" x="34.52" y="235.62" width="17.96" height="14.96"></rect>
                <rect id="Rectangle-path" fill="#F8C198" x="58.47" y="235.62" width="17.96" height="14.96"></rect>
                <circle id="Oval" fill="#F8C198" cx="74.87" cy="48.5" r="23.94"></circle>
                <polygon id="Shape" fill="#F8C198" points="97.31 82.92 76.36 82.92 73.37 58.98 91.33 58.98"></polygon>
                <path d="M109.35,148.83 C109.35,148.83 121.35,154.83 112.35,169.83 C103.35,184.83 43.51,178.83 43.51,178.83 C43.51,178.83 58.51,214.74 55.51,241.68 L31.53,241.68 C31.53,241.68 24.35,180 18.46,174 C10.83,166.37 16.6,151.78 31.57,154.77 C46.54,157.76 109.35,148.83 109.35,148.83 Z" id="Shape" fill="#263238"></path>
                <g id="Group" opacity="0.2" transform="translate(15.000000, 148.000000)" fill="#FFFFFF">
                    <path d="M33.41,30.22 C33.41,30.22 43.93,31.22 56.8,31.39 C47.46,31.49 38.8,31.01 33.58,30.64 L33.41,30.22 Z" id="Shape"></path>
                    <path d="M28.17,6.85 C51.54,6.4 94.35,0.29 94.35,0.29 C94.6604941,0.455581385 94.96101,0.639230011 95.25,0.84 C83.06,2.5 46.06,7.27 28.17,6.85 Z" id="Shape"></path>
                    <path d="M15.21,6.05 C5.02,7.6 1.87,19.05 8.33,25.5 C14.25,31.42 21.44,93.07 21.44,93.07 L16.54,93.07 C16.54,93.07 9.35,31.42 3.46,25.5 C-3.98,18.1 1.24,4.15 15.21,6.05 Z" id="Shape"></path>
                </g>
                <path d="M58.46,247.59 C58.46,247.59 10.57,247.59 10.57,253.59 C10.57,259.59 16.57,262.59 16.57,262.59 L58.46,262.59 L58.46,247.59 Z" id="Shape" fill="#263238"></path>
                <path d="M58,247.36 L58,249 C49.66,249.06 11.75,249.65 11.75,255 C11.7716131,257.170406 12.5657546,259.262118 13.99,260.9 C11.6328047,259.098932 10.2085641,256.334878 10.11,253.37 C10.11,247.36 58,247.36 58,247.36 Z" id="Shape" fill="#FFFFFF" opacity="0.2"></path>
                <path d="M133.29,148.83 C133.29,148.83 145.29,154.83 136.29,169.83 C127.29,184.83 67.45,178.83 67.45,178.83 C67.45,178.83 82.45,214.74 79.45,241.68 L55.46,241.68 C55.46,241.68 52.46,178.83 43.46,172.84 C34.46,166.85 40.46,151.84 55.46,154.84 C70.46,157.84 133.29,148.83 133.29,148.83 Z" id="Shape" fill="#263238"></path>
                <path d="M82.46,247.59 C82.46,247.59 34.57,247.59 34.57,253.59 C34.57,259.59 40.57,262.59 40.57,262.59 L82.46,262.59 L82.46,247.59 Z" id="Shape" fill="#263238"></path>
                <path d="M93.1,74 L100.38,74 C103.25,74 105.3,81.2 107.38,83.22 C112.04,87.81 108.94,95.85 121.38,119.87 C133.06,142.45 137.01,140.48 140.96,148.37 C144.91,156.26 70.46,155.9 70.46,155.9 C70.46,155.9 74.25,140.78 73.46,129.69 C71.82,106.9 65.9,99.01 73.8,91.11 C73.78,91.11 82.25,74 93.1,74 Z" id="Shape" fill="#F8BEC4"></path>
                <polygon id="Shape" fill="#FFFFFF" points="33.47 113.54 23.66 134.8 30.2 138.07 40.01 116.81"></polygon>
                <path d="M74.87,26.2 C75.6881689,26.19861 76.5058831,26.2386613 77.32,26.32 C65.0869856,27.5494603 55.7739925,37.8453583 55.7739925,50.14 C55.7739925,62.4346417 65.0869856,72.7305397 77.32,73.96 C76.5058831,74.0413387 75.6881689,74.08139 74.87,74.08 C61.6455417,74.08 50.925,63.3594583 50.925,50.135 C50.925,36.9105417 61.6455417,26.19 74.87,26.19 L74.87,26.2 Z" id="Shape" fill="#FFFFFF" opacity="0.2"></path>
                <path d="M48.75,22.31 C51.15,20.01 54.5,19.07 57.75,18.21 L72.24,14.33 C76.55,13.18 80.91,12.01 85.37,12 C88.0894881,12.006946 90.7903291,12.4492088 93.37,13.31 C94.57,12.79 95.92,12.41 96.81,12.12 C100.393136,10.7865794 104.123,9.88684622 107.92,9.44 C111.737085,9.01007344 115.591604,9.81251428 118.92,11.73 C122.653048,14.0711556 125.014554,18.0813323 125.251266,22.4814034 C125.487979,26.8814745 123.570333,31.1218587 120.11,33.85 C117.768181,35.5770098 115.050722,36.7249905 112.18,37.2 C112.640898,41.7624087 112.052574,46.3698015 110.46,50.67 C108.891753,54.5955293 106.737258,58.2605309 104.07,61.54 C102.34,63.75 100.38,65.91 97.81,67.05 C95.24,68.19 91.93,68.05 89.95,66.05 C88.49,64.58 87.95,62.42 87.62,60.38 C86.11,52.3 84.62,43.01 77.62,38.7 C73.23,36 68.34,36.26 63.44,36.29 C59.0395077,36.2784697 54.6971429,35.2842697 50.73,33.38 C49.5260937,32.9081146 48.4405202,32.1775714 47.55,31.24 C45.35,28.72 46.35,24.61 48.75,22.31 Z" id="Shape" fill="#FBB0B7"></path>
                <g id="Group" opacity="0.2" transform="translate(46.000000, 9.000000)" fill="#FFFFFF">
                    <path d="M72.95,6 C69.6216039,4.08251428 65.7670846,3.28007344 61.95,3.71 C58.1530004,4.15684622 54.4231365,5.05657938 50.84,6.39 C49.95,6.69 48.6,7.06 47.4,7.58 C44.8203291,6.71920875 42.1194881,6.27694605 39.4,6.27 C34.94,6.27 30.58,7.44 26.27,8.6 L11.78,12.48 C8.57,13.34 5.22,14.28 2.78,16.58 C1.70572751,17.6383427 0.947401686,18.9749353 0.59,20.44 C0.0110352318,17.8434104 0.843272961,15.1338876 2.78,13.31 C5.18,11.01 8.53,10.07 11.78,9.21 L26.27,5.33 C30.58,4.18 34.94,3.01 39.4,3 C42.1194881,3.00694605 44.8203291,3.44920875 47.4,4.31 C48.6,3.79 49.95,3.41 50.84,3.12 C54.4231365,1.78657938 58.1530004,0.886846216 61.95,0.44 C65.7670846,0.0100734391 69.6216039,0.812514279 72.95,2.73 C76.6528825,5.09951628 79.0041213,9.0925364 79.28,13.48 C79.313227,14.2583937 79.2764122,15.0381987 79.17,15.81 C78.6421768,11.783693 76.3665849,8.19469664 72.95,6 Z" id="Shape"></path>
                    <path d="M66.34,31.44 C66.34,31.88 66.34,32.31 66.34,32.75 C66.34,32.32 66.34,31.9 66.25,31.47 L66.34,31.44 Z" id="Shape"></path>
                </g>
                <path d="M73.46,130 C71.82,107.21 65.9,99.32 73.8,91.42 C73.8,91.42 82.26,74.31 93.12,74.31 L100.4,74.31 C101.407077,74.45797 102.291169,75.0584159 102.8,75.94 L98.03,75.94 C87.17,75.94 78.71,93.05 78.71,93.05 C70.81,100.95 76.71,108.84 78.37,131.63 C79.01,140.52 76.7,152 75.76,156.2 C72.46,156.2 70.47,156.2 70.47,156.2 C70.47,156.2 74.24,141.08 73.46,130 Z" id="Shape" fill="#FFFFFF" opacity="0.2"></path>
                <rect id="Rectangle-path" fill="#FBB0B7" transform="translate(89.060000, 106.190000) rotate(-180.000000) translate(-89.060000, -106.190000) " x="75.98" y="97.2" width="26.16" height="17.98"></rect>
                <g id="Group" opacity="0.2" transform="translate(39.000000, 148.000000)" fill="#FFFFFF">
                    <path d="M28.12,6.85 C51.49,6.4 94.3,0.29 94.3,0.29 C94.6104941,0.455581385 94.91101,0.639230011 95.2,0.84 C83,2.5 46.01,7.27 28.12,6.85 Z" id="Shape"></path>
                    <path d="M15.21,6.06 C4.95,7.62 1.79,19.15 9.41,24.23 C18.41,30.23 21.41,93.07 21.41,93.07 L16.46,93.07 C16.46,93.07 13.46,30.22 4.46,24.23 C-4.22,18.42 1.18,4.14 15.21,6.06 Z" id="Shape"></path>
                    <path d="M33.35,30.22 C33.35,30.22 43.87,31.22 56.74,31.39 C47.4,31.49 38.74,31.01 33.52,30.64 L33.35,30.22 Z" id="Shape"></path>
                </g>
                <path d="M100.370006,109.92 L100.37,138.55 C100.373861,143.525523 98.3494191,148.287647 94.7639119,151.737283 C91.1784047,155.186918 86.3416637,157.025974 81.37,156.83 C68.72,156.34 54.13,156.15 52.46,157.83 C51.07,159.22 47.76,161.89 44.6,164.35 C43.1385949,165.488017 41.1403714,165.647872 39.5166309,164.756663 C37.8928903,163.865453 36.9547287,162.093927 37.13,160.25 C37.53,155.44 39.04,150.32 43.47,148.85 C47.04,147.66 53.47,146.94 59.85,146.51 C70.8702843,145.736717 79.407097,136.557348 79.38,125.51 L79.38,109.92 L100.370006,109.92 Z" id="Shape" fill="#F8C198"></path>
                <path d="M37.16,160.23 C37.56,155.42 39.07,150.3 43.5,148.83 C47.07,147.64 53.5,146.92 59.88,146.49 C70.9002843,145.716717 79.437097,136.537348 79.41,125.49 L79.41,109.92 L100.41,109.92 L100.41,111.55 L82.69,111.55 L82.69,127.12 C82.717097,138.167348 74.1802843,147.346717 63.16,148.12 C56.74,148.55 50.34,149.27 46.78,150.46 C42.35,151.94 40.83,157.06 40.44,161.86 C40.327458,163.109829 40.7281679,164.351669 41.55,165.3 C40.288195,165.229044 39.1090222,164.649713 38.2817525,163.694301 C37.4544828,162.738889 37.0497582,161.488981 37.16,160.23 Z" id="Shape" fill="#FFFFFF" opacity="0.2"></path>
                <path d="M82.52,247.36 L82.52,249 C74.18,249.06 36.27,249.65 36.27,255 C36.2916131,257.170406 37.0857546,259.262118 38.51,260.9 C36.1528047,259.098932 34.7285641,256.334878 34.63,253.37 C34.63,247.36 82.52,247.36 82.52,247.36 Z" id="Shape" fill="#FFFFFF" opacity="0.2"></path>
            </g>
        </g>
    </g>
</svg>