<?xml version="1.0" encoding="UTF-8"?>
<svg width="121px" height="88px" viewBox="0 0 121 88" version="1.1" xmlns="http://www.w3.org/2000/svg" xmlns:xlink="http://www.w3.org/1999/xlink">
    <!-- Generator: Sketch 49.3 (51167) - http://www.bohemiancoding.com/sketch -->
    <title>coding (1)</title>
    <desc>Created with Sketch.</desc>
    <defs></defs>
    <g id="Welcome" stroke="none" stroke-width="1" fill="none" fill-rule="evenodd">
        <g id="Desktop" transform="translate(-564.000000, -883.000000)" fill-rule="nonzero">
            <g id="Group-3-Copy" style="mix-blend-mode: overlay;" transform="translate(512.000000, 813.000000)">
                <g id="coding-(1)" transform="translate(52.000000, 70.000000)">
                    <path d="M114.741322,0 L6.25867773,0 C2.80214258,0 0,2.68635013 0,6.00005149 L0,81.9999485 C0,85.3136499 2.80214258,88 6.25867773,88 L114.741322,88 C118.197857,88 121,85.3136499 121,81.9999485 L121,6.00005149 C121,2.68635013 118.197857,0 114.741322,0 Z M104.310271,3.99995881 L106.396576,3.99995881 C107.548676,3.99995881 108.482881,4.89555989 108.482881,6.00005149 C108.482881,7.10454309 107.548676,8.00014418 106.396576,8.00014418 L104.310271,8.00014418 C103.158172,8.00014418 102.223967,7.10454309 102.223967,6.00005149 C102.224203,4.89555989 103.158172,3.99995881 104.310271,3.99995881 Z M45.8965762,3.99995881 L95.9655254,3.99995881 C97.117625,3.99995881 98.0518301,4.89555989 98.0518301,6.00005149 C98.0518301,7.10454309 97.117625,8.00014418 95.9655254,8.00014418 L45.8965762,8.00014418 C44.7444766,8.00014418 43.8102715,7.10454309 43.8102715,6.00005149 C43.8102715,4.89555989 44.7444766,3.99995881 45.8965762,3.99995881 Z M35.4655254,3.99995881 L37.5518301,3.99995881 C38.7039297,3.99995881 39.6381348,4.89555989 39.6381348,6.00005149 C39.6381348,7.10454309 38.7039297,8.00014418 37.5518301,8.00014418 L35.4655254,8.00014418 C34.3134258,8.00014418 33.3792207,7.10454309 33.3792207,6.00005149 C33.3792207,4.89555989 34.3134258,3.99995881 35.4655254,3.99995881 Z M27.1207793,3.99995881 L29.207084,3.99995881 C30.3591836,3.99995881 31.2933887,4.89555989 31.2933887,6.00005149 C31.2933887,7.10454309 30.3591836,8.00014418 29.207084,8.00014418 L27.1207793,8.00014418 C25.9686797,8.00014418 25.0344746,7.10454309 25.0344746,6.00005149 C25.0344746,4.89555989 25.9686797,3.99995881 27.1207793,3.99995881 Z M18.7757969,3.99995881 C19.9278965,3.99995881 20.8621016,4.89555989 20.8621016,6.00005149 C20.8621016,7.10454309 19.9278965,8.00014418 18.7757969,8.00014418 C17.6236973,8.00014418 16.6894922,7.10454309 16.6894922,6.00005149 C16.6897285,4.89555989 17.6236973,3.99995881 18.7757969,3.99995881 Z M12.5173555,3.99995881 C13.6694551,3.99995881 14.6036602,4.89555989 14.6036602,6.00005149 C14.6036602,7.10454309 13.6694551,8.00014418 12.5173555,8.00014418 C11.3652559,8.00014418 10.4310508,7.10454309 10.4310508,6.00005149 C10.4310508,4.89555989 11.3650195,3.99995881 12.5173555,3.99995881 Z M6.25867773,3.99995881 C7.41077734,3.99995881 8.34498242,4.89555989 8.34498242,6.00005149 C8.34498242,7.10454309 7.41077734,8.00014418 6.25867773,8.00014418 C5.10657813,8.00014418 4.17237305,7.10454309 4.17237305,6.00005149 C4.17237305,4.89555989 5.10657813,3.99995881 6.25867773,3.99995881 Z M116.827627,23.9999794 L116.827627,81.9999485 C116.827627,83.1044401 115.893422,84.0000412 114.741322,84.0000412 L60.5,84.0000412 L6.25867773,84.0000412 C5.10657813,84.0000412 4.17237305,83.1044401 4.17237305,81.9999485 L4.17237305,23.9999794 L4.17237305,13.9999691 C4.17237305,12.8954775 5.10657813,11.9998764 6.25867773,11.9998764 L60.5,11.9998764 L114.741322,11.9998764 C115.893422,11.9998764 116.827627,12.8954775 116.827627,13.9999691 L116.827627,23.9999794 Z M114.741322,7.99991761 L112.655018,7.99991761 C111.502918,7.99991761 110.568713,7.10431653 110.568713,5.99982493 C110.568713,4.89533333 111.502918,3.99973224 112.655018,3.99973224 L114.741322,3.99973224 C115.893422,3.99973224 116.827627,4.89533333 116.827627,5.99982493 C116.827627,7.10454309 115.893422,7.99991761 114.741322,7.99991761 Z" id="Shape" fill="#AB3440"></path>
                    <circle id="Oval" fill="#FBB0B7" cx="6" cy="6" r="2"></circle>
                    <circle id="Oval" fill="#FBB0B7" cx="12" cy="6" r="2"></circle>
                    <circle id="Oval" fill="#FBB0B7" cx="19" cy="6" r="2"></circle>
                    <g id="Group" transform="translate(25.000000, 4.000000)" fill="#FBB0B7">
                        <path d="M2.30212308,3.81115789 L4.38462564,3.81115789 C5.53462564,3.81115789 6.46712821,2.97894737 6.46712821,1.95263158 C6.46712821,0.926315789 5.53462564,0.0941052632 4.38462564,0.0941052632 L2.30212308,0.0941052632 C1.15212308,0.0941052632 0.219620513,0.926315789 0.219620513,1.95263158 C0.219620513,2.97915789 1.15212308,3.81115789 2.30212308,3.81115789 Z" id="Shape"></path>
                        <path d="M10.6316615,3.81115789 L12.7141641,3.81115789 C13.8641641,3.81115789 14.7966667,2.97894737 14.7966667,1.95263158 C14.7966667,0.926315789 13.8641641,0.0941052632 12.7141641,0.0941052632 L10.6316615,0.0941052632 C9.48166154,0.0941052632 8.54915897,0.926315789 8.54915897,1.95263158 C8.54915897,2.97915789 9.48166154,3.81115789 10.6316615,3.81115789 Z" id="Shape"></path>
                        <path d="M79.3509436,3.81115789 L81.4334462,3.81115789 C82.5834462,3.81115789 83.5159487,2.97894737 83.5159487,1.95263158 C83.5159487,0.926315789 82.5834462,0.0941052632 81.4334462,0.0941052632 L79.3509436,0.0941052632 C78.2009436,0.0941052632 77.268441,0.926315789 77.268441,1.95263158 C77.2686769,2.97915789 78.2009436,3.81115789 79.3509436,3.81115789 Z" id="Shape"></path>
                        <path d="M89.7629846,0.0943157895 L87.6804821,0.0943157895 C86.5304821,0.0943157895 85.5979795,0.926526316 85.5979795,1.95284211 C85.5979795,2.97915789 86.5304821,3.81136842 87.6804821,3.81136842 L89.7629846,3.81136842 C90.9129846,3.81136842 91.8454872,2.97915789 91.8454872,1.95284211 C91.8454872,0.926526316 90.9129846,0.0943157895 89.7629846,0.0943157895 Z" id="Shape"></path>
                        <path d="M21.0437026,3.81115789 L71.0214051,3.81115789 C72.1714051,3.81115789 73.1039077,2.97894737 73.1039077,1.95263158 C73.1039077,0.926315789 72.1714051,0.0941052632 71.0214051,0.0941052632 L21.0437026,0.0941052632 C19.8937026,0.0941052632 18.9612,0.926315789 18.9612,1.95263158 C18.9612,2.97915789 19.8937026,3.81115789 21.0437026,3.81115789 Z" id="Shape"></path>
                    </g>
                    <g id="Group" transform="translate(65.000000, 16.000000)" fill="#D2555F">
                        <path d="M10.5665538,0.0871578947 L2.23701538,0.0871578947 C1.08701538,0.0871578947 0.154512821,0.919368421 0.154512821,1.94568421 C0.154512821,2.972 1.08701538,3.80421053 2.23701538,3.80421053 L10.5665538,3.80421053 C11.7165538,3.80421053 12.6490564,2.972 12.6490564,1.94568421 C12.6490564,0.919368421 11.7165538,0.0871578947 10.5665538,0.0871578947 Z" id="Shape"></path>
                        <path d="M27.2258667,0.0871578947 L18.8963282,0.0871578947 C17.7463282,0.0871578947 16.8138256,0.919368421 16.8138256,1.94568421 C16.8138256,2.972 17.7463282,3.80421053 18.8963282,3.80421053 L27.2258667,3.80421053 C28.3758667,3.80421053 29.3083692,2.972 29.3083692,1.94568421 C29.3083692,0.919368421 28.3758667,0.0871578947 27.2258667,0.0871578947 Z" id="Shape"></path>
                        <path d="M43.8849436,0.0871578947 L35.5554051,0.0871578947 C34.4054051,0.0871578947 33.4729026,0.919368421 33.4729026,1.94568421 C33.4729026,2.972 34.4054051,3.80421053 35.5554051,3.80421053 L43.8849436,3.80421053 C45.0349436,3.80421053 45.9674462,2.972 45.9674462,1.94568421 C45.9674462,0.919368421 45.0351795,0.0871578947 43.8849436,0.0871578947 Z" id="Shape"></path>
                    </g>
                    <g id="Group" transform="translate(67.000000, 34.000000)" fill="#FBB0B7">
                        <path d="M2.20236559,17.8466667 L16.8200645,17.8466667 C17.9732903,17.8466667 18.9084086,16.9682222 18.9084086,15.8848889 L18.9084086,0.191333333 C18.9084086,1.27466667 17.9732903,2.15311111 16.8200645,2.15311111 L2.20236559,2.15311111 C1.04913978,2.15311111 0.114021505,1.27466667 0.114021505,0.191333333 L0.114021505,15.8848889 C0.114258065,16.9684444 1.04913978,17.8466667 2.20236559,17.8466667 Z" id="Shape"></path>
                        <path d="M27.2613118,17.8466667 L41.8790108,17.8466667 C43.0322366,17.8466667 43.9673548,16.9682222 43.9673548,15.8848889 L43.9673548,0.191333333 C43.9673548,1.27466667 43.0322366,2.15311111 41.8790108,2.15311111 L27.2613118,2.15311111 C26.108086,2.15311111 25.1729677,1.27466667 25.1729677,0.191333333 L25.1729677,15.8848889 C25.1732043,16.9684444 26.108086,17.8466667 27.2613118,17.8466667 Z" id="Shape"></path>
                    </g>
                    <path d="M69.1111908,36 L83.8888092,36 C85.0546514,36 86,35.1044404 86,34 L86,32 C86,30.8955596 85.0546514,30 83.8888092,30 L69.1111908,30 C67.9453486,30 67,30.8955596 67,32 L67,34 C67.0002391,35.1044404 67.9453486,36 69.1111908,36 Z" id="Shape" fill="#AB3440"></path>
                    <path d="M94.1111908,36 L108.888809,36 C110.054651,36 111,35.1044404 111,34 L111,32 C111,30.8955596 110.054651,30 108.888809,30 L94.1111908,30 C92.9453486,30 92,30.8955596 92,32 L92,34 C92.0002391,35.1044404 92.9453486,36 94.1111908,36 Z" id="Shape" fill="#AB3440"></path>
                    <path d="M73.105351,60.000068 L73.105351,75.999932 C73.105351,77.10441 72.1626174,78 71,78 L108.894649,78 C110.057266,78 111,77.10441 111,75.999932 L111,60.000068 C111,58.89559 110.057266,58 108.894649,58 L71,58 C72.1626174,58 73.105351,58.89559 73.105351,60.000068 Z" id="Shape" fill="#FBB0B7"></path>
                    <path d="M69,78 L71,78 C72.1044404,78 73,77.10441 73,75.999932 L73,60.000068 C73,58.89559 72.1044404,58 71,58 L69,58 C67.8955596,58 67,58.89559 67,60.000068 L67,75.999932 C67.0002266,77.10441 67.8955596,78 69,78 Z" id="Shape" fill="#AB3440"></path>
                    <path d="M21.1112041,22 L54.8887959,22 C56.0546455,22 57,21.1044404 57,20 C57,18.8955596 56.0546455,18 54.8887959,18 L21.1112041,18 C19.9453545,18 19,18.8955596 19,20 C19,21.1044404 19.9453545,22 21.1112041,22 Z" id="Shape" fill="#AB3440"></path>
                    <g id="Group" transform="translate(23.000000, 26.000000)" fill="#AB3440">
                        <path d="M8.65675556,0.122666667 L2.18313333,0.122666667 C0.991466667,0.122666667 0.0251777778,1.00111111 0.0251777778,2.08444444 C0.0251777778,3.16777778 0.991466667,4.04622222 2.18313333,4.04622222 L8.65675556,4.04622222 C9.84842222,4.04622222 10.8147111,3.16777778 10.8147111,2.08444444 C10.8144667,1.00088889 9.84842222,0.122666667 8.65675556,0.122666667 Z" id="Shape"></path>
                        <path d="M8.65675556,7.96933333 L2.18313333,7.96933333 C0.991466667,7.96933333 0.0251777778,8.84777778 0.0251777778,9.93111111 C0.0251777778,11.0144444 0.991466667,11.8928889 2.18313333,11.8928889 L8.65675556,11.8928889 C9.84842222,11.8928889 10.8147111,11.0144444 10.8147111,9.93111111 C10.8147111,8.84777778 9.84842222,7.96933333 8.65675556,7.96933333 Z" id="Shape"></path>
                    </g>
                    <path d="M54.8887959,42 L21.1112041,42 C19.9453545,42 19,42.8955596 19,44 C19,45.1044404 19.9453545,46 21.1112041,46 L54.8887959,46 C56.0546455,46 57,45.1044404 57,44 C57,42.8955596 56.0546455,42 54.8887959,42 Z" id="Shape" fill="#AB3440"></path>
                    <g id="Group" transform="translate(19.000000, 26.000000)" fill="#AB3440">
                        <path d="M35.7477875,24.0269333 L2.20305,24.0269333 C1.0452375,24.0269333 0.1064,24.9188923 0.1064,26.0188923 C0.1064,27.1188923 1.0452375,28.0108513 2.20305,28.0108513 L35.7477875,28.0108513 C36.9056,28.0108513 37.8444375,27.1188923 37.8444375,26.0188923 C37.8444375,24.9188923 36.9056,24.0269333 35.7477875,24.0269333 Z" id="Shape"></path>
                        <path d="M35.7477875,0.124553846 L21.07195,0.124553846 C19.9141375,0.124553846 18.9753,1.01651282 18.9753,2.11651282 C18.9753,3.21651282 19.9141375,4.10847179 21.07195,4.10847179 L35.7477875,4.10847179 C36.9056,4.10847179 37.8444375,3.21651282 37.8444375,2.11651282 C37.8444375,1.01628718 36.9056,0.124553846 35.7477875,0.124553846 Z" id="Shape"></path>
                        <path d="M35.7477875,8.09193846 L21.07195,8.09193846 C19.9141375,8.09193846 18.9753,8.98389744 18.9753,10.0838974 C18.9753,11.1838974 19.9141375,12.0758564 21.07195,12.0758564 L35.7477875,12.0758564 C36.9056,12.0758564 37.8444375,11.1838974 37.8444375,10.0838974 C37.8444375,8.98389744 36.9056,8.09193846 35.7477875,8.09193846 Z" id="Shape"></path>
                        <path d="M35.7477875,31.9943179 L21.07195,31.9943179 C19.9141375,31.9943179 18.9753,32.8862769 18.9753,33.9862769 C18.9753,35.0862769 19.9141375,35.9782359 21.07195,35.9782359 L35.7477875,35.9782359 C36.9056,35.9782359 37.8444375,35.0862769 37.8444375,33.9862769 C37.8444375,32.8862769 36.9056,31.9943179 35.7477875,31.9943179 Z" id="Shape"></path>
                        <path d="M35.7477875,39.9617026 L21.07195,39.9617026 C19.9141375,39.9617026 18.9753,40.8536615 18.9753,41.9536615 C18.9753,43.0536615 19.9141375,43.9456205 21.07195,43.9456205 L35.7477875,43.9456205 C36.9056,43.9456205 37.8444375,43.0536615 37.8444375,41.9536615 C37.8444375,40.8536615 36.9056,39.9617026 35.7477875,39.9617026 Z" id="Shape"></path>
                    </g>
                    <g id="Group" transform="translate(23.000000, 58.000000)" fill="#AB3440">
                        <path d="M2.18313333,4.09955556 L8.65675556,4.09955556 C9.84842222,4.09955556 10.8147111,3.22111111 10.8147111,2.13777778 C10.8147111,1.05444444 9.84842222,0.176 8.65675556,0.176 L2.18313333,0.176 C0.991466667,0.176 0.0251777778,1.05444444 0.0251777778,2.13777778 C0.0251777778,3.22111111 0.991466667,4.09955556 2.18313333,4.09955556 Z" id="Shape"></path>
                        <path d="M2.18313333,11.9464444 L8.65675556,11.9464444 C9.84842222,11.9464444 10.8147111,11.068 10.8147111,9.98466667 C10.8147111,8.90133333 9.84842222,8.02288889 8.65675556,8.02288889 L2.18313333,8.02288889 C0.991466667,8.02288889 0.0251777778,8.90133333 0.0251777778,9.98466667 C0.0251777778,11.068 0.991466667,11.9464444 2.18313333,11.9464444 Z" id="Shape"></path>
                    </g>
                    <path d="M54.8887959,74 L21.1112041,74 C19.9453545,74 19,74.8955596 19,76 C19,77.1044404 19.9453545,78 21.1112041,78 L54.8887959,78 C56.0546455,78 57,77.1044404 57,76 C57,74.895333 56.0546455,74 54.8887959,74 Z" id="Shape" fill="#AB3440"></path>
                    <g id="Group" transform="translate(8.000000, 18.000000)" fill="#AB3440">
                        <path d="M2.23373333,4.03691729 L4.39168889,4.03691729 C5.58335556,4.03691729 6.54964444,3.14526316 6.54964444,2.0456391 C6.54964444,0.946015038 5.58335556,0.0543609023 4.39168889,0.0543609023 L2.23373333,0.0543609023 C1.04206667,0.0543609023 0.0757777778,0.946015038 0.0757777778,2.0456391 C0.0757777778,3.14526316 1.04206667,4.03691729 2.23373333,4.03691729 Z" id="Shape"></path>
                        <path d="M8.70735556,8.01924812 L6.5494,8.01924812 C5.35773333,8.01924812 4.39144444,8.91090226 4.39144444,10.0105263 C4.39144444,11.1101504 5.35773333,12.0018045 6.5494,12.0018045 L8.70735556,12.0018045 C9.89902222,12.0018045 10.8653111,11.1101504 10.8653111,10.0105263 C10.8650667,8.91067669 9.89902222,8.01924812 8.70735556,8.01924812 Z" id="Shape"></path>
                        <path d="M8.70735556,15.9839098 L6.5494,15.9839098 C5.35773333,15.9839098 4.39144444,16.8755639 4.39144444,17.975188 C4.39144444,19.074812 5.35773333,19.9664662 6.5494,19.9664662 L8.70735556,19.9664662 C9.89902222,19.9664662 10.8653111,19.074812 10.8653111,17.975188 C10.8653111,16.8755639 9.89902222,15.9839098 8.70735556,15.9839098 Z" id="Shape"></path>
                        <path d="M2.23373333,27.9311278 L4.39168889,27.9311278 C5.58335556,27.9311278 6.54964444,27.0394737 6.54964444,25.9398496 C6.54964444,24.8402256 5.58335556,23.9485714 4.39168889,23.9485714 L2.23373333,23.9485714 C1.04206667,23.9485714 0.0757777778,24.8402256 0.0757777778,25.9398496 C0.0757777778,27.0394737 1.04206667,27.9311278 2.23373333,27.9311278 Z" id="Shape"></path>
                        <path d="M2.23373333,35.8957895 L4.39168889,35.8957895 C5.58335556,35.8957895 6.54964444,35.0041353 6.54964444,33.9045113 C6.54964444,32.8048872 5.58335556,31.9132331 4.39168889,31.9132331 L2.23373333,31.9132331 C1.04206667,31.9132331 0.0757777778,32.8048872 0.0757777778,33.9045113 C0.0757777778,35.0041353 1.04206667,35.8957895 2.23373333,35.8957895 Z" id="Shape"></path>
                        <path d="M6.5494,43.8604511 L8.70735556,43.8604511 C9.89902222,43.8604511 10.8653111,42.968797 10.8653111,41.8691729 C10.8653111,40.7695489 9.89902222,39.8778947 8.70735556,39.8778947 L6.5494,39.8778947 C5.35773333,39.8778947 4.39144444,40.7695489 4.39144444,41.8691729 C4.39144444,42.968797 5.35773333,43.8604511 6.5494,43.8604511 Z" id="Shape"></path>
                        <path d="M8.70735556,47.842782 L6.5494,47.842782 C5.35773333,47.842782 4.39144444,48.7344361 4.39144444,49.8340602 C4.39144444,50.9336842 5.35773333,51.8253383 6.5494,51.8253383 L8.70735556,51.8253383 C9.89902222,51.8253383 10.8653111,50.9336842 10.8653111,49.8340602 C10.8653111,48.7344361 9.89902222,47.842782 8.70735556,47.842782 Z" id="Shape"></path>
                        <path d="M4.39168889,55.8076692 L2.23373333,55.8076692 C1.04206667,55.8076692 0.0757777778,56.6993233 0.0757777778,57.7989474 C0.0757777778,58.8985714 1.04206667,59.7902256 2.23373333,59.7902256 L4.39168889,59.7902256 C5.58335556,59.7902256 6.54964444,58.8985714 6.54964444,57.7989474 C6.5494,56.6990977 5.58335556,55.8076692 4.39168889,55.8076692 Z" id="Shape"></path>
                    </g>
                </g>
            </g>
        </g>
    </g>
</svg>