<?xml version="1.0" encoding="UTF-8"?>
<svg width="137px" height="127px" viewBox="0 0 137 127" version="1.1" xmlns="http://www.w3.org/2000/svg" xmlns:xlink="http://www.w3.org/1999/xlink">
    <!-- Generator: Sketch 49.3 (51167) - http://www.bohemiancoding.com/sketch -->
    <title>editor</title>
    <desc>Created with Sketch.</desc>
    <defs></defs>
    <g id="Welcome" stroke="none" stroke-width="1" fill="none" fill-rule="evenodd">
        <g id="Desktop" transform="translate(-324.000000, -847.000000)" fill-rule="nonzero">
            <g id="Group-4" transform="translate(232.000000, 772.000000)">
                <g id="editor" transform="translate(92.000000, 75.000000)">
                    <path d="M132.275908,0 L4.7240918,0 C2.1149375,0 0,2.31744064 0,5.17641885 L0,88 L137,88 L137,5.17641885 C137,2.31744064 134.885063,0 132.275908,0 Z M129.913729,80.2352251 L7.08627148,80.2352251 L7.08627148,7.76477487 L129.913729,7.76477487 L129.913729,80.2352251 Z" id="Shape" fill="#AB3440"></path>
                    <path d="M0,98.6666667 C0,101.61231 2.11494163,104 4.72410102,104 L49.6034621,104 L87.3965379,104 L132.275899,104 C134.885058,104 137,101.61231 137,98.6666667 L137,88 L0,88 L0,98.6666667 Z M68.5001338,91.9999245 C70.4569364,91.9999245 72.0431427,93.7909941 72.0431427,95.999849 C72.0431427,98.2087039 70.4566689,99.9997734 68.5001338,99.9997734 C66.5433311,99.9997734 64.9571249,98.2087039 64.9571249,95.999849 C64.9571249,93.7909941 66.5433311,91.9999245 68.5001338,91.9999245 Z" id="Shape" fill="#FBB0B7"></path>
                    <polygon id="Shape" fill="#F8BEC4" points="48 122 90 122 88.5211947 109 49.4788053 109"></polygon>
                    <path d="M47.4000952,122 C46.0747141,122 45,123.119449 45,124.5 C45,125.880551 46.0747141,127 47.4000952,127 L90.5999048,127 C91.9252859,127 93,125.880551 93,124.5 C93,123.119449 91.9252859,122 90.5999048,122 L90.3000289,122 L47.700243,122 L47.4000952,122 Z" id="Shape" fill="#FBB0B7"></path>
                    <path d="M96.1213392,60.0399891 L96.1020924,61.6145605 L96.0000842,70.0837072 C95.9910107,70.8485838 96.716891,71.3679995 97.365784,71.0602086 L99.7801608,69.9163069 L101.93608,75.217018 C102.136247,75.7082368 102.580849,76 103.048822,76 C103.211045,76 103.377118,75.9643829 103.535767,75.8898839 C104.14864,75.5981207 104.427994,74.825527 104.159364,74.1630494 L102.003719,68.862932 L104.417271,67.7193271 C105.065889,67.411833 105.203367,66.4837114 104.675729,65.9729032 L98.3064039,59.8129302 L97.7452214,59.2703634 C97.1224491,58.6678413 96.1320624,59.1370962 96.1213392,60.0399891 Z" id="Shape" fill="#FFFFFF"></path>
                </g>
            </g>
        </g>
    </g>
</svg>