<?xml version="1.0" encoding="UTF-8"?>
<svg width="262px" height="140px" viewBox="0 0 262 140" version="1.1" xmlns="http://www.w3.org/2000/svg" xmlns:xlink="http://www.w3.org/1999/xlink">
    <!-- Generator: Sketch 49.3 (51167) - http://www.bohemiancoding.com/sketch -->
    <title>Logo</title>
    <desc>Created with Sketch.</desc>
    <defs></defs>
    <g id="Welcome" stroke="none" stroke-width="1" fill="none" fill-rule="evenodd">
        <g id="Desktop" transform="translate(-596.000000, -134.000000)">
            <g id="Logo" transform="translate(576.000000, 51.000000)">
                <g id="paraguay" transform="translate(150.963941, 150.556863) rotate(-48.000000) translate(-150.963941, -150.556863) translate(46.963941, 41.056863)" fill="#FD384B" fill-rule="nonzero">
                    <path d="M189.323927,122.995997 C181.287177,125.165138 178.698742,123.508703 177.690513,115.699797 C177.002203,110.267085 175.082689,105.011849 173.851486,99.6382964 C168.383782,75.5805549 167.569443,75.3439214 142.557603,77.4834828 C134.811688,78.1736639 126.086628,77.5327815 119.649472,73.0170251 C113.832765,68.9055176 119.746417,61.9938468 119.697945,56.3146423 C119.571916,41.4363095 116.896231,26.3607822 109.043677,14.9826536 C97.109733,-2.38033109 39.5631126,-4.94386092 22.8400802,8.82032232 C22.4716888,9.15555315 22.2002425,9.599241 21.8900181,9.9936302 C6.82474717,28.8848731 8.68609339,53.5539178 0.659037842,74.9100933 C-3.04426556,84.7501039 9.94637988,84.7008053 12.6511486,91.799811 C20.164395,111.460113 37.6920719,120.215553 55.471806,125.894758 C77.759488,132.974044 95.0835801,150.041237 117.894766,155.661283 C121.326623,156.4895 128.355144,161.6067 122.635382,166.911235 C111.098913,177.549884 111.215247,194.222687 101.578903,205.531798 C96.9643153,210.91521 99.0486353,212.374451 104.875037,214.237939 C111.670889,216.387361 119.756112,211.832165 125.495263,218.487483 C141.394262,218.487483 157.283566,218.487483 173.182565,218.487483 C174.597964,211.033527 179.270718,206.290997 185.67879,203.037286 C193.492567,199.122973 197.244343,192.339479 198.737297,184.027726 C201.422677,169.198692 204.263169,154.379518 206.531685,139.520905 C209.110425,122.660766 205.397427,118.677435 189.323927,122.995997 Z" id="Shape"></path>
                </g>
                <text id="MOLA" font-family="Futura-Medium, Futura" font-size="85" font-weight="400" letter-spacing="1.70000005" fill="#FFFFFF">
                    <tspan x="15" y="173.443137">MOL</tspan>
                    <tspan x="219.028223" y="173.443137" letter-spacing="1.60555565">A</tspan>
                </text>
            </g>
        </g>
    </g>
</svg>