<?xml version="1.0" encoding="UTF-8"?>
<svg width="214px" height="201px" viewBox="0 0 214 201" version="1.1" xmlns="http://www.w3.org/2000/svg" xmlns:xlink="http://www.w3.org/1999/xlink">
    <!-- Generator: Sketch 49.3 (51167) - http://www.bohemiancoding.com/sketch -->
    <title>Group 2</title>
    <desc>Created with Sketch.</desc>
    <defs>
        <linearGradient x1="0%" y1="100%" x2="100%" y2="0%" id="linearGradient-1">
            <stop stop-color="#FD384B" offset="0%"></stop>
            <stop stop-color="#E53243" offset="100%"></stop>
        </linearGradient>
    </defs>
    <g id="Welcome" stroke="none" stroke-width="1" fill="none" fill-rule="evenodd">
        <g id="Desktop" transform="translate(-38.000000, -1542.000000)">
            <g id="Group-2" transform="translate(0.000000, 1499.000000)">
                <path d="M138.645792,233.333333 C160.498799,233.333333 163.382324,216.822768 177.002915,209.593291 C202.586993,196.013889 228.932558,182.425388 228.932558,142.121593 C228.932558,129.09385 210.186729,122.4831 202.108196,111.807293 C192.235117,98.7599878 191.58274,82.3635055 177.002915,74.6498952 C146.956733,58.753645 137.246162,34.6666667 103.829327,34.6666667 C97.9586718,34.6666667 88.9195514,56.1272097 84.695066,57.2553584 C61.7749317,63.3761797 64.4762118,63.5523196 55.4403416,80.8972746 C49.9186208,91.4965857 43.6323813,110.492387 36.961926,123.049537 C35.0036782,126.735944 45.072968,141.570386 45.072968,147.180963 C45.072968,163.557899 52.2235858,152.137838 56.201257,153.728609 C59.1237253,154.897377 57.3539042,168.752242 64.8820949,177.106918 C85.748777,200.264459 104.67893,233.333333 138.645792,233.333333 Z" id="Oval-2-Copy" fill-opacity="0.153589221" fill="#FD384B" transform="translate(132.820930, 134.000000) rotate(-29.000000) translate(-132.820930, -134.000000) "></path>
                <path d="M160.003932,233.333333 C181.856939,233.333333 184.740463,216.822768 198.361055,209.593291 C223.945132,196.013889 250.290698,182.425388 250.290698,142.121593 C250.290698,129.09385 231.544869,122.4831 223.466336,111.807293 C213.593257,98.7599878 212.940879,82.3635055 198.361055,74.6498952 C168.314873,58.753645 158.604302,34.6666667 125.187467,34.6666667 C119.316811,34.6666667 110.277691,56.1272097 106.053206,57.2553584 C83.1330713,63.3761797 85.8343513,63.5523196 76.7984811,80.8972746 C71.2767603,91.4965857 64.9905209,110.492387 58.3200656,123.049537 C56.3618177,126.735944 66.4311076,141.570386 66.4311076,147.180963 C66.4311076,163.557899 73.5817253,152.137838 77.5593966,153.728609 C80.4818649,154.897377 78.7120437,168.752242 86.2402344,177.106918 C107.106917,200.264459 126.037069,233.333333 160.003932,233.333333 Z" id="Oval-2-Copy-2" fill-opacity="0.153589221" fill="#FD384B" transform="translate(154.179070, 134.000000) rotate(-29.000000) translate(-154.179070, -134.000000) "></path>
                <path d="M147.989978,243.333333 C169.842985,243.333333 172.72651,226.822768 186.347101,219.593291 C211.931179,206.013889 238.276744,192.425388 238.276744,152.121593 C238.276744,139.09385 219.530915,132.4831 211.452382,121.807293 C201.579303,108.759988 200.926926,92.3635055 186.347101,84.6498952 C156.300919,68.753645 146.590348,44.6666667 113.173513,44.6666667 C107.302858,44.6666667 98.2637375,66.1272097 94.0392521,67.2553584 C71.1191178,73.3761797 73.8203978,73.5523196 64.7845276,90.8972746 C59.2628068,101.496586 52.9765674,120.492387 46.3061121,133.049537 C44.3478642,136.735944 54.4171541,151.570386 54.4171541,157.180963 C54.4171541,173.557899 61.5677718,162.137838 65.5454431,163.728609 C68.4679114,164.897377 66.6980903,178.752242 74.2262809,187.106918 C95.092963,210.264459 114.023116,243.333333 147.989978,243.333333 Z" id="Oval-2-Copy-3" fill-opacity="0.153589221" fill="#FD384B" transform="translate(142.165116, 144.000000) rotate(2.000000) translate(-142.165116, -144.000000) "></path>
                <path d="M150.438695,234 C170.083538,234 172.675693,219.096168 184.919976,212.570231 C207.918879,200.312314 231.602326,188.046183 231.602326,151.66457 C231.602326,125.532361 208.75088,103.419226 184.919976,90.7589099 C157.909846,76.4096102 149.180492,54.6666667 119.140301,54.6666667 C85.2298235,54.6666667 85.2608142,77.8555022 75.6408388,96.3983229 C69.2198507,108.77499 48.055814,110.738248 48.055814,133.054507 C48.055814,158.69921 68.1500375,165.438982 84.1285388,183.245283 C102.886722,204.149237 119.904055,234 150.438695,234 Z" id="Oval-2" fill="url(#linearGradient-1)"></path>
            </g>
        </g>
    </g>
</svg>